<svg width="230" height="27" viewBox="0 0 230 27" fill="none" xmlns="http://www.w3.org/2000/svg">
<path d="M144.852 0.278118C137.488 1.65424 133.28 9.54047 135.384 17.903C136.005 20.4436 138.731 23.831 141.266 25.26C145.235 27.483 151.547 27.0066 154.56 24.2014C155.851 22.9841 155.899 22.8253 155.182 21.9785C154.464 21.0787 154.321 21.0787 152.169 22.4019C147.722 25.1541 141.983 23.778 139.305 19.2262C138.157 17.3208 137.966 16.474 137.966 13.1925C137.966 9.75218 138.11 9.16997 139.449 7.3175C142.557 2.97743 147.435 1.76009 151.978 4.30062C153.986 5.41211 154.608 5.57089 155.182 5.04161C155.564 4.67112 155.899 4.19477 155.899 3.93013C155.899 3.13621 152.265 0.91325 150.352 0.542757C149.3 0.331045 148.152 0.119335 147.769 0.0134792C147.387 -0.0394478 146.048 0.0664062 144.852 0.278118Z" fill="black"/>
<path d="M167.806 0.489824C164.793 1.17789 163.311 2.13058 161.207 4.61819C156.951 9.64632 157.572 19.0675 162.45 23.5134C166.993 27.6947 173.832 27.8535 178.47 23.9368C181.244 21.608 182.726 18.4323 183.013 14.3569C183.444 8.53484 181.244 3.98305 176.844 1.70716C173.64 0.0134754 171.201 -0.304092 167.806 0.489824ZM174.788 3.93013C181.722 7.42336 182.105 18.7499 175.362 22.6136C169.384 26.0539 162.115 21.9256 161.302 14.6215C160.633 8.2702 164.937 2.9245 170.723 2.9245C171.919 2.9245 173.736 3.40085 174.788 3.93013Z" fill="black"/>
<path d="M0 13.5626V26.7946L1.339 26.6358L2.63019 26.477L2.77365 20.4962L2.91712 14.5682H10.0425H17.2158V20.7079C17.2158 26.7416 17.2158 26.7946 18.3157 26.6358L19.3677 26.477L19.5112 13.3509L19.6069 0.277761H18.4113H17.2158V6.09981V11.9219H10.0425H2.8693V6.09981V0.277761H1.43465H0V13.5626Z" fill="black"/>
<path d="M26.8757 9.91062C27.0192 19.0671 27.067 19.7022 28.2147 21.8723C30.032 25.4184 31.9926 26.477 36.6313 26.477C39.931 26.477 40.6962 26.3182 42.2265 25.1538C43.1829 24.4657 44.4263 22.8779 45.048 21.7135C46.0522 19.7552 46.1479 18.8554 46.2913 9.91062L46.4826 0.277777H45.0001H43.5177V9.32841C43.5177 20.1257 43.1351 21.5018 39.7876 23.1425C36.2966 24.8892 32.6622 23.8306 30.7493 20.5491C30.032 19.3317 29.8407 17.5851 29.745 9.69891L29.5537 0.277777H28.1191H26.6844L26.8757 9.91062Z" fill="black"/>
<path d="M53.6559 13.3509L53.7994 26.477L55.0906 26.6358L56.4296 26.7946L56.5252 16.8441L56.6687 6.89373L60.877 14.9387C63.7463 20.3903 65.3722 23.0367 65.9461 23.0367C66.52 23.0367 68.1459 20.3903 71.063 14.8858L75.3191 6.73495L75.4626 16.7912L75.5582 26.7946L76.8973 26.6358L78.1884 26.477L78.3319 13.3509L78.4275 0.277761H77.1364C75.893 0.277761 75.4148 1.07168 71.063 9.54012C68.4328 14.6212 66.1852 18.6437 65.9939 18.5378C65.8026 18.432 63.555 14.2507 60.9248 9.3284C56.6209 1.07168 56.0948 0.277761 54.8515 0.277761H53.5603L53.6559 13.3509Z" fill="black"/>
<path d="M87.2747 13.0337C84.3576 20.0202 81.9187 26.001 81.8231 26.3186C81.7274 26.5832 82.3491 26.742 83.2099 26.6362C84.7402 26.4774 84.8358 26.3186 89.1876 15.5213C91.5787 9.43465 93.635 4.40651 93.7785 4.30066C93.8741 4.14187 96.0261 9.11708 98.5606 15.2567C103.008 26.1598 103.151 26.4774 104.538 26.4774C105.495 26.4774 105.877 26.2657 105.782 25.7364C105.686 25.313 103.343 19.3851 100.569 12.6103C95.5 0.384007 95.4522 0.278151 94.0176 0.278151C92.5351 0.278151 92.4873 0.384007 87.2747 13.0337Z" fill="#4AA3D6"/>
<path d="M109.249 13.7681V27L110.588 26.8412L111.879 26.6824L112.118 16.6262L112.357 6.62282L119.674 16.7849C129.573 30.5462 129.047 30.7049 129.238 13.5564L129.334 0.483206H127.899H126.464L126.369 10.5924L126.225 20.6487L118.909 10.5924C112.979 2.33568 111.401 0.483206 110.444 0.483206H109.249V13.7681Z" fill="black"/>
<path d="M188.417 13.5097V26.7946L189.756 26.6358C191.047 26.477 191.047 26.4241 191.191 22.3486L191.334 18.2732H195.256H199.177L201.807 22.5074C203.911 25.8948 204.677 26.6887 205.681 26.7416C206.35 26.7416 207.02 26.5828 207.211 26.4241C207.355 26.2653 206.207 24.2011 204.677 21.8194L201.903 17.5322L203.672 16.3149C207.116 14.0919 208.12 7.89937 205.729 4.1415C203.864 1.2834 201.807 0.542416 194.778 0.383633L188.417 0.171921V13.5097ZM200.851 3.77101C203.146 4.77663 204.198 6.68203 204.198 9.80476C204.198 13.8273 201.281 15.6268 194.778 15.6268H191.287V9.27549V2.92416H195.112C197.503 2.92416 199.655 3.24173 200.851 3.77101Z" fill="black"/>
<path d="M212.663 0.648716C212.472 0.807499 212.328 6.78833 212.328 13.8806V26.7421L220.84 26.6362L229.305 26.4774L229.448 24.9955L229.592 23.5664H222.658H215.676V19.0676V14.5687H221.653H227.631V13.2455V11.9223H221.653H215.676V7.42346V2.92461H222.371H229.066V1.60141V0.278221H221.032C216.584 0.278221 212.806 0.437004 212.663 0.648716Z" fill="black"/>
</svg>
