<svg width="203" height="126" viewBox="0 0 203 126" fill="none" xmlns="http://www.w3.org/2000/svg">
    <path opacity="0.52" d="M168.802 19.8611V91.1305C168.802 95.0971 165.887 98.3458 162.285 98.3458H58.5444C54.9426 98.3458 52.0232 95.109 52.0232 91.1305V19.8611C52.0232 15.8944 54.9426 12.6458 58.5444 12.6458H162.285C165.887 12.6458 168.802 15.8865 168.802 19.8611Z" fill="#EFEFEF" />
    <path d="M159.858 29.147V100.417C159.858 104.383 156.942 107.632 153.34 107.632H49.6079C46.0022 107.632 43.0867 104.391 43.0867 100.417V29.147C43.0867 25.1803 46.0022 21.9316 49.6079 21.9316H153.348C156.942 21.9316 159.858 25.1724 159.858 29.147Z" fill="#EFEFEF" />
    <path opacity="0.66" d="M159.881 28.4568V36.037H43.0745V28.4568C43.0755 26.7265 43.7634 25.0674 44.9869 23.8439C46.2104 22.6204 47.8695 21.9327 49.5997 21.9317H153.336C154.195 21.9296 155.045 22.0968 155.839 22.4237C156.633 22.7506 157.354 23.2309 157.962 23.8369C158.57 24.443 159.052 25.163 159.382 25.9557C159.711 26.7485 159.881 27.5984 159.881 28.4568Z" fill="#D8D8DB" />
    <path d="M125.966 32.6855C127.427 32.6855 128.612 31.501 128.612 30.0398C128.612 28.5786 127.427 27.394 125.966 27.394C124.505 27.394 123.32 28.5786 123.32 30.0398C123.32 31.501 124.505 32.6855 125.966 32.6855Z" fill="#FEFEFE" />
    <path d="M137.45 32.6855C138.911 32.6855 140.095 31.501 140.095 30.0398C140.095 28.5786 138.911 27.394 137.45 27.394C135.988 27.394 134.804 28.5786 134.804 30.0398C134.804 31.501 135.988 32.6855 137.45 32.6855Z" fill="#FEFEFE" />
    <path d="M148.929 32.6855C150.39 32.6855 151.575 31.501 151.575 30.0398C151.575 28.5786 150.39 27.394 148.929 27.394C147.468 27.394 146.283 28.5786 146.283 30.0398C146.283 31.501 147.468 32.6855 148.929 32.6855Z" fill="#FEFEFE" />
    <g opacity="0.32">
        <path opacity="0.32" d="M152.119 47.8223H95.1016V53.7644H152.119V47.8223Z" fill="#D8D8DB" />
        <path opacity="0.32" d="M152.119 66.176H95.1016V72.1182H152.119V66.176Z" fill="#D8D8DB" />
        <path opacity="0.32" d="M88.3857 66.176H52.0947V72.1182H88.3857V66.176Z" fill="#D8D8DB" />
        <path opacity="0.32" d="M88.3857 84.5299H52.0947V90.472H88.3857V84.5299Z" fill="#D8D8DB" />
        <path opacity="0.32" d="M88.3857 47.8223H52.0947V53.7644H88.3857V47.8223Z" fill="#D8D8DB" />
        <path opacity="0.32" d="M125.236 84.5299H95.5895C95.32 84.5299 95.1016 84.7483 95.1016 85.0178V89.9841C95.1016 90.2536 95.32 90.472 95.5895 90.472H125.236C125.506 90.472 125.724 90.2536 125.724 89.9841V85.0178C125.724 84.7483 125.506 84.5299 125.236 84.5299Z" fill="#D8D8DB" />
    </g>
    <g opacity="0.25">
        <path opacity="0.25" d="M79.1672 36.0332H82.4992L96.8862 21.928H93.5543L79.1672 36.0332Z" fill="url(#paint0_linear_2_670)" />
        <path opacity="0.25" d="M61.8408 36.0332H64.5342H74.0224L88.4175 21.928H77.5489L61.8408 36.0332Z" fill="url(#paint1_linear_2_670)" />
    </g>
    <path opacity="0.48" d="M159.857 82.777V100.417C159.857 104.383 156.942 107.632 153.34 107.632H133.507C133.102 106.34 132.829 105.011 132.69 103.665C132.626 102.979 132.586 102.305 132.586 101.607C132.581 101.502 132.581 101.398 132.586 101.293C132.586 100.71 132.626 100.123 132.678 99.5479C133.032 96.0984 134.272 92.7989 136.276 89.9691C138.28 87.1393 140.981 84.8751 144.118 83.3958C144.248 83.3323 144.391 83.2728 144.514 83.2133C147.093 82.0642 149.886 81.4722 152.709 81.4759C153.393 81.4741 154.076 81.5086 154.756 81.579C156.501 81.7567 158.216 82.1593 159.857 82.777Z" fill="url(#paint2_linear_2_670)" />
    <path d="M179.996 105.149C179.996 105.367 179.996 105.585 179.996 105.799C179.976 106.35 179.937 106.89 179.869 107.425C179.463 111.017 178.097 114.433 175.914 117.314C173.731 120.195 170.813 122.435 167.466 123.798C164.119 125.162 160.466 125.599 156.891 125.063C153.317 124.527 149.953 123.038 147.152 120.753C146.17 119.952 145.264 119.061 144.447 118.092C141.853 115.011 140.248 111.219 139.842 107.211C139.778 106.529 139.739 105.847 139.739 105.149C139.739 105.049 139.739 104.938 139.739 104.839C139.739 104.252 139.782 103.669 139.834 103.09C140.19 99.6412 141.429 96.3426 143.432 93.5131C145.436 90.6835 148.135 88.4186 151.27 86.9375L151.666 86.7551C154.244 85.6056 157.035 85.0135 159.858 85.0176C160.544 85.016 161.23 85.0504 161.912 85.1208C164.109 85.3429 166.253 85.9273 168.259 86.8503L168.402 86.9137C169.983 87.6588 171.461 88.604 172.801 89.7261C175.056 91.6136 176.869 93.9729 178.112 96.6378C179.355 99.3026 179.999 102.208 179.996 105.149Z" fill="#6847C7" />
    <path opacity="0.46" d="M179.996 105.149C179.996 105.367 179.996 105.585 179.996 105.799C179.977 106.35 179.937 106.89 179.87 107.425C179.359 111.952 177.326 116.171 174.104 119.391C170.881 122.611 166.661 124.641 162.135 125.149C166.506 124.486 170.537 122.401 173.604 119.215C176.67 116.03 178.6 111.922 179.096 107.529C179.167 106.993 179.203 106.45 179.223 105.902C179.223 105.688 179.223 105.47 179.223 105.252C179.227 102.311 178.585 99.4057 177.342 96.7406C176.1 94.0756 174.287 91.7162 172.031 89.8293C170.689 88.708 169.21 87.7628 167.628 87.0169C167.585 86.997 167.533 86.9693 167.49 86.9534C165.484 86.0296 163.34 85.4451 161.143 85.2239C160.46 85.1533 159.774 85.1189 159.088 85.1208C158.369 85.1209 157.65 85.1593 156.934 85.2358C157.903 85.0888 158.882 85.0158 159.862 85.0176C160.548 85.016 161.234 85.0504 161.916 85.1208C164.113 85.3429 166.257 85.9273 168.263 86.8503L168.406 86.9137C169.987 87.6588 171.465 88.604 172.805 89.7261C175.06 91.6136 176.873 93.9729 178.116 96.6378C179.36 99.3026 180.003 102.208 180 105.149H179.996Z" fill="url(#paint3_linear_2_670)" />
    <path d="M165.728 115.732H153.999C153.052 115.732 152.144 115.356 151.474 114.686C150.805 114.017 150.428 113.109 150.428 112.162V111.734C150.428 110.75 150.621 109.777 150.997 108.868C151.373 107.959 151.924 107.134 152.619 106.438C153.315 105.743 154.14 105.191 155.048 104.815C155.957 104.438 156.93 104.245 157.914 104.245H161.805C163.791 104.245 165.696 105.034 167.101 106.438C168.505 107.843 169.294 109.747 169.294 111.734V112.166C169.293 113.111 168.917 114.018 168.248 114.686C167.58 115.355 166.674 115.731 165.728 115.732Z" fill="#FEFEFE" />
    <path d="M159.865 101.781C162.799 101.781 165.177 99.403 165.177 96.4696C165.177 93.5362 162.799 91.1582 159.865 91.1582C156.932 91.1582 154.554 93.5362 154.554 96.4696C154.554 99.403 156.932 101.781 159.865 101.781Z" fill="#FEFEFE" />
    <g opacity="0.08">
        <path opacity="0.08" d="M172.801 89.7264L144.435 118.08C141.841 114.999 140.236 111.207 139.83 107.2L161.92 85.1091C164.117 85.3312 166.261 85.9157 168.267 86.8386L168.41 86.9021C169.988 87.6514 171.464 88.6007 172.801 89.7264Z" fill="url(#paint4_linear_2_670)" />
        <path opacity="0.08" d="M178.897 98.58L153.296 124.185C151.058 123.414 148.973 122.252 147.14 120.754L175.466 92.4237C176.965 94.2568 178.127 96.3412 178.897 98.58Z" fill="url(#paint5_linear_2_670)" />
    </g>
    <g opacity="0.18">
        <path opacity="0.18" d="M0.5 117.037C1.75347 114.657 3.06628 112.337 4.39909 110.004C5.73189 107.672 7.13619 105.395 8.56023 103.118C9.98427 100.841 11.4837 98.6119 13.0227 96.4025C14.5618 94.193 16.1683 92.0391 17.8422 89.9129C21.2179 85.7003 24.8672 81.6504 29.1155 78.1438C31.2531 76.3532 33.5841 74.8071 36.0651 73.5345C38.6209 72.1788 41.4144 71.3289 44.2921 71.0315C45.7729 70.8921 47.2651 70.9374 48.7347 71.1664C50.2166 71.4143 51.6597 71.8558 53.0268 72.4794C55.6783 73.7699 58.0296 75.6023 59.9287 77.8582C61.7431 79.9978 63.3503 82.3048 64.7285 84.7483C66.1128 87.1283 67.3386 89.5559 68.5365 91.9637C69.7345 94.3715 70.8888 96.7634 72.1065 99.1037C73.2725 101.395 74.598 103.602 76.0732 105.708C77.5449 107.727 79.199 109.564 81.1228 110.805C81.5982 111.115 82.0923 111.394 82.6024 111.642C83.1172 111.875 83.6473 112.073 84.189 112.233C85.261 112.552 86.3748 112.707 87.4931 112.694C89.8069 112.622 92.0653 111.968 94.0581 110.79C96.2101 109.518 98.2069 108.001 100.008 106.268C101.902 104.483 103.704 102.603 105.407 100.635C107.148 98.6516 108.826 96.6087 110.52 94.5539C117.263 86.3151 123.872 77.7193 131.686 70.1747C135.556 66.3525 139.734 62.8553 144.177 59.7185C148.642 56.5905 153.443 53.9707 158.489 51.9081C163.53 49.8864 168.807 48.5097 174.193 47.8105C176.869 47.4706 179.564 47.2944 182.261 47.2829C184.946 47.2758 187.629 47.4361 190.294 47.7629C187.624 47.6774 184.952 47.7409 182.289 47.9533C179.637 48.1522 177 48.5098 174.391 49.0243C169.199 50.0345 164.149 51.6743 159.354 53.9073C154.578 56.1239 150.061 58.8617 145.887 62.0708C141.706 65.2776 137.779 68.8025 134.141 72.6142C132.309 74.5182 130.53 76.4751 128.806 78.4849C127.082 80.4947 125.379 82.527 123.697 84.5817C120.349 88.7111 117.12 92.9594 113.78 97.1839C112.118 99.3021 110.413 101.396 108.624 103.459C106.844 105.556 104.959 107.56 102.975 109.465C100.921 111.446 98.6407 113.177 96.1803 114.621C94.8755 115.364 93.4935 115.961 92.0589 116.402C90.5777 116.858 89.0388 117.098 87.4892 117.117C85.9283 117.132 84.374 116.91 82.8799 116.458C82.1334 116.232 81.4042 115.953 80.6982 115.621C80.0031 115.287 79.3313 114.907 78.6872 114.483C77.4357 113.651 76.2821 112.681 75.2481 111.591C74.2495 110.545 73.3294 109.428 72.4953 108.247C70.9167 105.959 69.501 103.562 68.2588 101.075C67.0132 98.6475 65.8788 96.2121 64.7285 93.8003C63.5781 91.3886 62.4437 89.0204 61.1823 86.7475C59.9759 84.5026 58.5585 82.3774 56.9497 80.4008C55.4303 78.5162 53.5402 76.9635 51.3963 75.8391C50.3431 75.3153 49.2255 74.9325 48.0723 74.7006C46.896 74.4796 45.6967 74.4064 44.5023 74.4826C42.0358 74.664 39.6277 75.3199 37.4099 76.4143C35.0926 77.526 32.8956 78.8725 30.8531 80.4326C26.688 83.5583 22.9593 87.3465 19.4527 91.3172C15.9462 95.2878 12.6737 99.5123 9.53601 103.816C6.39837 108.12 3.43931 112.559 0.5 117.037Z" fill="#6847C7" />
    </g>
    <path d="M0.5 110.25C1.75744 107.87 3.07035 105.553 4.40315 103.225C5.73596 100.897 7.14404 98.6156 8.57205 96.3427C10.0001 94.0698 11.4956 91.8366 13.0386 89.6311C14.5817 87.4256 16.1842 85.2677 17.8581 83.1416C21.2338 78.929 24.8871 74.8869 29.1355 71.3804C31.2721 69.5935 33.6002 68.0489 36.0772 66.775C38.6322 65.4258 41.4221 64.5789 44.296 64.2801C45.7742 64.1401 47.2643 64.1867 48.7308 64.4188C50.2092 64.6636 51.6485 65.1038 53.0109 65.7279C55.6584 67.016 58.0058 68.8458 59.9011 71.0988C61.7138 73.2374 63.3195 75.543 64.6967 77.9849C66.0732 80.3649 67.3028 82.7886 68.5007 85.1964C69.6987 87.6042 70.853 90.0001 72.0707 92.3364C73.2361 94.6297 74.5616 96.838 76.0374 98.9449C77.513 100.968 79.1672 102.804 81.099 104.054C81.5748 104.367 82.0718 104.647 82.5865 104.891C83.1004 105.127 83.6306 105.326 84.1732 105.486C85.2486 105.808 86.3667 105.965 87.4893 105.95C89.8113 105.877 92.0773 105.219 94.0779 104.038C96.231 102.765 98.2279 101.245 100.028 99.5081C101.922 97.7226 103.726 95.8426 105.431 93.8755C107.168 91.8921 108.846 89.8492 110.54 87.7905C117.283 79.5517 123.888 70.9559 131.698 63.4113C135.566 59.5878 139.743 56.0894 144.185 52.9512C148.646 49.8224 153.442 47.2027 158.485 45.1408C163.524 43.1162 168.8 41.7367 174.185 41.0352C176.86 40.6926 179.553 40.5137 182.249 40.4997C184.934 40.4932 187.617 40.6523 190.282 40.9758C187.611 40.8877 184.937 40.9486 182.273 41.1582C179.622 41.3543 176.984 41.7107 174.376 42.2252C169.182 43.231 164.13 44.8682 159.334 47.1003C154.551 49.3138 150.028 52.0502 145.847 55.2597C141.663 58.4664 137.732 61.9914 134.09 65.8032C132.261 67.7033 130.484 69.6668 128.755 71.67C127.025 73.6731 125.316 75.704 123.646 77.7707C120.294 81.896 117.065 86.1444 113.729 90.3689C112.071 92.4871 110.365 94.5815 108.592 96.6442C106.811 98.7384 104.926 100.742 102.943 102.646C100.893 104.625 98.6163 106.356 96.1604 107.803C94.857 108.54 93.478 109.134 92.0471 109.576C90.57 110.031 89.0349 110.272 87.4893 110.29C85.9324 110.304 84.3824 110.081 82.892 109.631C82.147 109.406 81.4191 109.128 80.7142 108.798C80.022 108.463 79.3529 108.083 78.7111 107.66C77.4613 106.832 76.3102 105.865 75.2799 104.776C74.2826 103.732 73.3637 102.615 72.5309 101.436C70.9543 99.15 69.5401 96.7561 68.2985 94.2721C67.049 91.8445 65.9185 89.4089 64.7682 86.9972C63.6179 84.5854 62.4794 82.2373 61.218 79.9445C60.0075 77.7001 58.5877 75.5751 56.9776 73.5978C55.4585 71.7108 53.5684 70.1555 51.4242 69.0282C50.3668 68.5044 49.2452 68.1216 48.0882 67.8897C46.9119 67.669 45.7126 67.5957 44.5182 67.6715C42.0467 67.8557 39.6335 68.5129 37.4099 69.6073C35.0933 70.7233 32.8964 72.0723 30.8531 73.6334C26.6881 76.7632 22.9553 80.5553 19.4527 84.526C15.9501 88.4966 12.6776 92.7251 9.53602 97.0329C6.39441 101.341 3.43535 105.783 0.5 110.25Z" fill="url(#paint6_linear_2_670)" />
    <path d="M153.546 53.6456C156.407 53.6456 158.727 51.3262 158.727 48.4651C158.727 45.6041 156.407 43.2847 153.546 43.2847C150.685 43.2847 148.366 45.6041 148.366 48.4651C148.366 51.3262 150.685 53.6456 153.546 53.6456Z" fill="url(#paint7_linear_2_670)" />
    <path d="M87.767 113.336C90.6281 113.336 92.9475 111.017 92.9475 108.156C92.9475 105.294 90.6281 102.975 87.767 102.975C84.9058 102.975 82.5864 105.294 82.5864 108.156C82.5864 111.017 84.9058 113.336 87.767 113.336Z" fill="url(#paint8_linear_2_670)" />
    <path d="M45.1927 71.186C48.0537 71.186 50.373 68.8666 50.373 66.0055C50.373 63.1444 48.0537 60.825 45.1927 60.825C42.3316 60.825 40.0125 63.1444 40.0125 66.0055C40.0125 68.8666 42.3316 71.186 45.1927 71.186Z" fill="url(#paint9_linear_2_670)" />
    <path d="M63.2849 5.39056V6.53699V30.583C63.2797 31.8837 62.7598 33.1295 61.8389 34.0482C60.918 34.9669 59.6709 35.4838 58.3701 35.4858H40.9167H17.1444H16.3034C15.0047 35.4806 13.7608 34.9624 12.8424 34.044C11.9241 33.1257 11.4059 31.8817 11.4006 30.583L11.4204 5.39056C11.4214 4.09057 11.9383 2.84417 12.8575 1.92494C13.7768 1.00571 15.0232 0.488843 16.3232 0.487793H58.3701C59.6712 0.488835 60.9189 1.00528 61.84 1.92417C62.7611 2.84306 63.2807 4.08948 63.2849 5.39056Z" fill="url(#paint10_linear_2_670)" />
    <path opacity="0.48" d="M69.0208 11.1265V36.3149C69.0187 37.6146 68.5014 38.8603 67.5824 39.7793C66.6634 40.6983 65.4176 41.2156 64.118 41.2177H40.9326V35.4858H58.386C59.6868 35.4837 60.9339 34.9669 61.8548 34.0482C62.7757 33.1295 63.2956 31.8837 63.3008 30.583V6.53708V6.21973H64.1339C64.718 6.22015 65.2972 6.32633 65.8435 6.53311C66.7774 6.88484 67.5817 7.51291 68.1494 8.33361C68.717 9.1543 69.0211 10.1286 69.0208 11.1265Z" fill="url(#paint11_linear_2_670)" />
    <path d="M34.7881 18.8176H30.1551C29.9579 18.8176 29.7981 18.9774 29.7981 19.1746V28.9369C29.7981 29.134 29.9579 29.2938 30.1551 29.2938H34.7881C34.9853 29.2938 35.1453 29.134 35.1453 28.9369V19.1746C35.1453 18.9774 34.9853 18.8176 34.7881 18.8176Z" fill="white" />
    <path d="M44.923 6.54102H40.5518C40.2824 6.54102 40.064 6.75945 40.064 7.02891V28.8098C40.064 29.0793 40.2824 29.2977 40.5518 29.2977H44.923C45.1925 29.2977 45.4109 29.0793 45.4109 28.8098V7.02891C45.4109 6.75945 45.1925 6.54102 44.923 6.54102Z" fill="white" />
    <path d="M55.6768 12.6378V28.9408C55.6638 29.0485 55.6094 29.147 55.5249 29.2151C55.4404 29.2833 55.3328 29.3158 55.2247 29.3057H50.7779C50.6693 29.3157 50.5609 29.2827 50.4764 29.2137C50.3918 29.1447 50.3377 29.0453 50.3257 28.9368V12.6338C50.3295 12.5798 50.3445 12.5272 50.3695 12.4791C50.3944 12.4311 50.429 12.3886 50.471 12.3544C50.5129 12.3202 50.5614 12.295 50.6135 12.2803C50.6656 12.2656 50.7202 12.2617 50.7739 12.2689H55.2206C55.2752 12.2605 55.331 12.2636 55.3843 12.278C55.4376 12.2924 55.4874 12.3178 55.5303 12.3526C55.5733 12.3873 55.6085 12.4306 55.6338 12.4797C55.659 12.5288 55.6735 12.5826 55.6768 12.6378Z" fill="white" />
    <path d="M20.1133 12.2589C20.1121 12.2586 20.1123 12.2568 20.1135 12.2568H24.1177C24.2944 12.2568 24.464 12.3271 24.5889 12.4521C24.7139 12.577 24.7842 12.7466 24.7842 12.9233V28.8892C24.7842 28.9944 24.7424 29.0953 24.668 29.1697C24.5936 29.2441 24.4927 29.2859 24.3875 29.2859H19.8535C19.7483 29.2859 19.6474 29.2441 19.573 29.1697C19.4986 29.0953 19.4568 28.9944 19.4568 28.8892V12.9272C19.4568 12.8397 19.474 12.7531 19.5075 12.6723C19.541 12.5914 19.5901 12.518 19.652 12.4561C19.7139 12.3943 19.7873 12.3451 19.8682 12.3116C19.9459 12.2795 20.029 12.2623 20.1131 12.261C20.1143 12.261 20.1145 12.2591 20.1133 12.2589Z" fill="white" />
    <g opacity="0.64">
        <path opacity="0.64" d="M70.2344 0.46814L72.2178 0.392823C72.2376 0.392724 72.2566 0.399955 72.2713 0.413153C72.286 0.426351 72.2953 0.444541 72.2973 0.464171C72.2978 0.474068 72.2963 0.483964 72.293 0.49331C72.2897 0.502656 72.2845 0.511307 72.2779 0.518674C72.2713 0.526041 72.2632 0.53203 72.2543 0.536293C72.2453 0.540556 72.2357 0.54295 72.2258 0.543457L70.2344 0.46814Z" fill="#6847C7" />
        <path opacity="0.64" d="M74.2364 0.337157L76.2198 0.281659C76.2469 0.277725 76.2746 0.279611 76.3008 0.287276C76.327 0.294942 76.3512 0.30824 76.3719 0.326116C76.3926 0.343992 76.4091 0.366063 76.4205 0.390913C76.4319 0.415763 76.4377 0.44272 76.4377 0.470044C76.4377 0.497368 76.4319 0.524423 76.4205 0.549273C76.4091 0.574123 76.3926 0.596193 76.3719 0.61407C76.3512 0.631946 76.327 0.645244 76.3008 0.652909C76.2746 0.660574 76.2469 0.66246 76.2198 0.658527L74.2364 0.599057C74.2017 0.599057 74.1684 0.585254 74.1438 0.560702C74.1193 0.53615 74.1055 0.502829 74.1055 0.468107C74.1055 0.433385 74.1193 0.400065 74.1438 0.375513C74.1684 0.350961 74.2017 0.337157 74.2364 0.337157Z" fill="#6847C7" />
        <path opacity="0.64" d="M78.2312 0.226115L80.2148 0.186515C80.2521 0.18546 80.2892 0.191772 80.324 0.205201C80.3589 0.218631 80.3906 0.238916 80.4176 0.264747C80.4445 0.290579 80.466 0.321532 80.4809 0.35576C80.4958 0.389989 80.5039 0.426786 80.5044 0.464105C80.5049 0.501082 80.4981 0.537795 80.4844 0.572158C80.4707 0.606522 80.4503 0.637818 80.4246 0.664333C80.3988 0.690849 80.3681 0.712057 80.3341 0.726687C80.3001 0.741317 80.2636 0.749117 80.2266 0.749634L78.243 0.710033C78.2112 0.709517 78.1799 0.702725 78.1508 0.690088C78.1216 0.677451 78.0952 0.659185 78.0731 0.636352C78.051 0.613518 78.0336 0.586509 78.022 0.556957C78.0103 0.527405 78.0044 0.495875 78.0049 0.464105C78.0067 0.403564 78.0308 0.345837 78.0725 0.301927C78.1142 0.258017 78.1708 0.230974 78.2312 0.226115Z" fill="#6847C7" />
        <path opacity="0.64" d="M82.2255 0.146661L84.2089 0.11499C84.3022 0.114967 84.3918 0.151434 84.4585 0.216685C84.5253 0.281936 84.5638 0.370736 84.5658 0.464047C84.5669 0.510223 84.5588 0.556141 84.542 0.599156C84.5252 0.642171 84.4999 0.681395 84.4678 0.714604C84.4357 0.747813 84.3973 0.774395 84.3549 0.792667C84.3125 0.810939 84.2669 0.820532 84.2207 0.821045L82.2373 0.789374C82.1949 0.789387 82.1531 0.780926 82.1141 0.764483C82.0751 0.74804 82.0397 0.723903 82.0101 0.693587C81.9805 0.663271 81.9574 0.627346 81.9419 0.587921C81.9264 0.548496 81.919 0.506387 81.92 0.464047C81.9209 0.38219 81.9531 0.303753 82.0099 0.244773C82.0667 0.185793 82.1437 0.150698 82.2255 0.146661Z" fill="#6847C7" />
        <path opacity="0.64" d="M86.2198 0.0874183L88.2032 0.0635986C88.3084 0.0635986 88.4094 0.105414 88.4838 0.179792C88.5582 0.25417 88.5999 0.355018 88.5999 0.460205C88.5999 0.565392 88.5582 0.66624 88.4838 0.740618C88.4094 0.814996 88.3084 0.856812 88.2032 0.856812L86.2198 0.832992C86.1374 0.808964 86.065 0.758919 86.0135 0.690268C85.962 0.621617 85.9343 0.538079 85.9343 0.452265C85.9343 0.366451 85.962 0.28301 86.0135 0.214359C86.065 0.145708 86.1374 0.0955664 86.2198 0.0715385V0.0874183Z" fill="#6847C7" />
        <path opacity="0.64" d="M90.2144 0.0476777L92.1977 0.027832C92.3145 0.027832 92.4264 0.0742373 92.5089 0.15678C92.5915 0.239323 92.6379 0.351284 92.6379 0.468018C92.6379 0.584751 92.5915 0.696712 92.5089 0.779255C92.4264 0.861798 92.3145 0.908203 92.1977 0.908203L90.2144 0.888357C90.1029 0.888357 89.996 0.844042 89.9171 0.765218C89.8383 0.686393 89.7939 0.579493 89.7939 0.468018C89.7939 0.356543 89.8383 0.249642 89.9171 0.170817C89.996 0.0919926 90.1029 0.0476777 90.2144 0.0476777Z" fill="#6847C7" />
        <path opacity="0.64" d="M94.2088 0.0158691H96.1921C96.3131 0.0158691 96.429 0.0638722 96.5146 0.149429C96.6001 0.234986 96.6482 0.35105 96.6482 0.472046C96.6482 0.593042 96.6001 0.709106 96.5146 0.794663C96.429 0.88022 96.3131 0.928223 96.1921 0.928223H94.2088C94.0889 0.928223 93.9739 0.880638 93.8891 0.795825C93.8043 0.711012 93.7566 0.595961 93.7566 0.476017C93.7566 0.356073 93.8043 0.241022 93.8891 0.156209C93.9739 0.0713958 94.0889 0.0237142 94.2088 0.0237142V0.0158691Z" fill="#6847C7" />
        <path opacity="0.64" d="M98.2031 0.00800864H100.186C100.311 0.00800864 100.43 0.0572614 100.517 0.145041C100.605 0.232821 100.655 0.351911 100.655 0.47605C100.655 0.60019 100.605 0.719279 100.517 0.807059C100.43 0.894839 100.311 0.944092 100.186 0.944092H98.2031C98.08 0.944092 97.962 0.895257 97.875 0.808221C97.788 0.721185 97.739 0.603108 97.739 0.480021C97.7369 0.41812 97.7474 0.356455 97.7698 0.298731C97.7923 0.241006 97.8264 0.188433 97.8698 0.144267C97.9132 0.1001 97.9651 0.0652366 98.0224 0.0418068C98.0797 0.018377 98.1412 0.00689363 98.2031 0.00800864Z" fill="#6847C7" />
        <path opacity="0.64" d="M102.198 0.00794187H104.181C104.301 0.00898805 104.416 0.0575104 104.501 0.142954C104.586 0.228397 104.633 0.343804 104.633 0.464115C104.634 0.523838 104.622 0.583121 104.6 0.638449C104.577 0.693776 104.544 0.744023 104.502 0.786439C104.46 0.828854 104.41 0.862543 104.355 0.885518C104.3 0.908493 104.241 0.92029 104.181 0.920288H102.198C102.076 0.920288 101.959 0.871867 101.872 0.785567C101.786 0.699267 101.738 0.582191 101.738 0.460144C101.738 0.338097 101.786 0.221021 101.872 0.134721C101.959 0.0484209 102.076 0 102.198 0V0.00794187Z" fill="#6847C7" />
        <path opacity="0.64" d="M106.192 0.0198975C106.881 0.0269675 107.568 0.0879644 108.247 0.202359C108.361 0.220245 108.462 0.282531 108.53 0.375523C108.598 0.468515 108.626 0.584596 108.608 0.698221C108.59 0.811846 108.528 0.913706 108.435 0.981404C108.342 1.0491 108.226 1.07706 108.112 1.05917C107.475 0.966121 106.832 0.918356 106.188 0.916323C106.069 0.916323 105.955 0.869158 105.871 0.785094C105.787 0.701029 105.74 0.586996 105.74 0.46811C105.74 0.349224 105.787 0.235191 105.871 0.151127C105.955 0.0670616 106.069 0.0198975 106.188 0.0198975H106.192Z" fill="#6847C7" />
        <path opacity="0.64" d="M110.25 0.702207C110.902 0.917058 111.536 1.1823 112.146 1.49552C112.193 1.51922 112.234 1.55185 112.268 1.59159C112.302 1.63132 112.328 1.67734 112.344 1.72706C112.36 1.77679 112.367 1.82919 112.363 1.88133C112.359 1.93347 112.344 1.98433 112.321 2.03095C112.297 2.07757 112.264 2.11906 112.224 2.15306C112.185 2.18707 112.139 2.21297 112.089 2.22918C112.039 2.24539 111.987 2.25164 111.935 2.24758C111.882 2.24352 111.832 2.22915 111.785 2.20545C111.208 1.91865 110.608 1.67864 109.992 1.48758C109.94 1.47117 109.892 1.44462 109.85 1.40953C109.808 1.37443 109.774 1.33149 109.749 1.28305C109.723 1.23462 109.708 1.18164 109.703 1.12724C109.698 1.07283 109.704 1.01799 109.721 0.965902C109.737 0.913812 109.764 0.865489 109.799 0.823644C109.834 0.781798 109.877 0.747289 109.925 0.722059C109.974 0.696828 110.026 0.681415 110.081 0.676641C110.135 0.671866 110.19 0.677857 110.242 0.694266L110.25 0.702207Z" fill="#6847C7" />
        <path opacity="0.64" d="M113.887 2.58653C114.438 2.99099 114.957 3.43785 115.438 3.92312C115.498 3.98717 115.532 4.07206 115.531 4.15997C115.53 4.24789 115.495 4.33206 115.434 4.39499C115.373 4.45792 115.289 4.49475 115.201 4.49773C115.113 4.50071 115.028 4.46959 114.962 4.41097C114.493 3.96613 113.99 3.55781 113.459 3.18941C113.419 3.16181 113.385 3.12656 113.358 3.08571C113.332 3.04485 113.313 2.99918 113.304 2.9513C113.296 2.90342 113.296 2.85425 113.307 2.80663C113.317 2.75901 113.336 2.71388 113.364 2.67378C113.391 2.63367 113.426 2.59937 113.467 2.57288C113.508 2.54639 113.554 2.52817 113.602 2.51933C113.65 2.51049 113.699 2.5112 113.746 2.52136C113.794 2.53152 113.839 2.55098 113.879 2.57859L113.887 2.58653Z" fill="#6847C7" />
        <path opacity="0.64" d="M116.763 5.48208C117.163 6.03378 117.518 6.61605 117.827 7.2234C117.843 7.25454 117.853 7.28863 117.855 7.32363C117.858 7.35862 117.854 7.39384 117.843 7.42715C117.832 7.46045 117.814 7.49117 117.791 7.5175C117.767 7.54383 117.739 7.56516 117.708 7.58034C117.646 7.61166 117.575 7.61804 117.509 7.59806C117.444 7.57809 117.388 7.53332 117.354 7.47324C117.036 6.90551 116.674 6.36321 116.272 5.85103C116.219 5.78686 116.194 5.70438 116.202 5.62181C116.21 5.53924 116.251 5.4633 116.315 5.41071C116.379 5.35811 116.462 5.33319 116.544 5.34137C116.627 5.34955 116.703 5.39021 116.755 5.45438L116.763 5.48208Z" fill="#6847C7" />
        <path opacity="0.64" d="M118.604 9.09961C118.808 9.74821 118.963 10.4112 119.068 11.083C119.076 11.1267 119.066 11.1717 119.041 11.2081C119.015 11.2446 118.977 11.2695 118.933 11.2774C118.889 11.2853 118.844 11.2754 118.808 11.2502C118.772 11.2249 118.747 11.1861 118.739 11.1425C118.603 10.4995 118.418 9.86817 118.184 9.25427C118.163 9.19955 118.165 9.13885 118.188 9.08538C118.212 9.0319 118.256 8.98996 118.311 8.96868C118.366 8.9478 118.427 8.94941 118.481 8.97313C118.535 8.99686 118.578 9.04084 118.6 9.09564L118.604 9.09961Z" fill="#6847C7" />
        <path opacity="0.64" d="M119.219 13.0862C119.219 13.7566 119.187 14.419 119.163 15.0696C119.162 15.0812 119.156 15.0918 119.147 15.0997C119.139 15.1076 119.127 15.1124 119.116 15.1132C119.104 15.1123 119.094 15.1074 119.086 15.0994C119.078 15.0914 119.073 15.0808 119.072 15.0696L119.005 13.0862C119.005 13.0578 119.016 13.0306 119.036 13.0105C119.056 12.9904 119.083 12.9791 119.112 12.9791C119.14 12.9791 119.167 12.9904 119.188 13.0105C119.208 13.0306 119.219 13.0578 119.219 13.0862Z" fill="#6847C7" />
    </g>
    <g opacity="0.64">
        <path opacity="0.64" d="M22.8246 42.4158L22.8999 44.3991C22.8999 44.4191 22.892 44.4383 22.8778 44.4524C22.8637 44.4665 22.8446 44.4745 22.8246 44.4745C22.8046 44.4745 22.7855 44.4665 22.7713 44.4524C22.7572 44.4383 22.7493 44.4191 22.7493 44.3991L22.8246 42.4158Z" fill="#6847C7" />
        <path opacity="0.64" d="M22.9555 46.4102L23.0111 48.3935C23.0121 48.4183 23.0081 48.443 22.9994 48.4663C22.9908 48.4896 22.9777 48.511 22.9607 48.5291C22.9437 48.5472 22.9231 48.5617 22.9004 48.5718C22.8777 48.5819 22.8534 48.5873 22.8286 48.5878C22.7787 48.5889 22.7303 48.5704 22.6939 48.5363C22.6575 48.5022 22.6361 48.4552 22.634 48.4054L22.6935 46.4221C22.6935 46.4048 22.6971 46.3875 22.704 46.3716C22.7108 46.3556 22.7208 46.3413 22.7334 46.3295C22.7461 46.3176 22.7611 46.3083 22.7774 46.3024C22.7937 46.2965 22.8112 46.2941 22.8286 46.2952C22.8603 46.295 22.8907 46.3067 22.9142 46.328C22.9377 46.3493 22.9525 46.3787 22.9555 46.4102Z" fill="#6847C7" />
        <path opacity="0.64" d="M23.0663 50.4046L23.106 52.3879C23.106 52.4625 23.0763 52.5342 23.0234 52.587C22.9706 52.6399 22.899 52.6696 22.8243 52.6696C22.7496 52.6696 22.6781 52.6399 22.6252 52.587C22.5724 52.5342 22.5427 52.4625 22.5427 52.3879L22.5824 50.4046C22.5824 50.3404 22.6079 50.279 22.6533 50.2336C22.6987 50.1882 22.7602 50.1627 22.8243 50.1627C22.8885 50.1627 22.95 50.1882 22.9954 50.2336C23.0407 50.279 23.0663 50.3404 23.0663 50.4046Z" fill="#6847C7" />
        <path opacity="0.64" d="M23.1457 54.3991L23.1775 56.3824C23.1775 56.476 23.1403 56.5658 23.0741 56.632C23.0079 56.6983 22.9181 56.7355 22.8245 56.7355C22.7308 56.7355 22.641 56.6983 22.5748 56.632C22.5087 56.5658 22.4714 56.476 22.4714 56.3824L22.5032 54.3991C22.5032 54.3139 22.5371 54.2321 22.5973 54.1719C22.6576 54.1116 22.7393 54.0778 22.8245 54.0778C22.9097 54.0778 22.9914 54.1116 23.0516 54.1719C23.1119 54.2321 23.1457 54.3139 23.1457 54.3991Z" fill="#6847C7" />
        <path opacity="0.64" d="M23.2052 58.3937L23.229 60.3769C23.229 60.4821 23.1872 60.583 23.1128 60.6574C23.0384 60.7317 22.9376 60.7736 22.8324 60.7736C22.7272 60.7736 22.6264 60.7317 22.552 60.6574C22.4776 60.583 22.4358 60.4821 22.4358 60.3769L22.4596 58.3937C22.4836 58.3113 22.5337 58.239 22.6023 58.1875C22.671 58.136 22.7545 58.1082 22.8403 58.1082C22.9262 58.1082 23.0097 58.136 23.0783 58.1875C23.147 58.239 23.197 58.3113 23.2211 58.3937H23.2052Z" fill="#6847C7" />
        <path opacity="0.64" d="M23.2449 62.3881L23.2646 64.3714C23.2646 64.4882 23.2182 64.6002 23.1357 64.6828C23.0531 64.7653 22.9412 64.8116 22.8245 64.8116C22.7077 64.8116 22.5958 64.7653 22.5133 64.6828C22.4307 64.6002 22.3843 64.4882 22.3843 64.3714L22.404 62.3881C22.404 62.2766 22.4484 62.1697 22.5272 62.0908C22.606 62.012 22.713 61.9677 22.8245 61.9677C22.936 61.9677 23.0429 62.012 23.1217 62.0908C23.2006 62.1697 23.2449 62.2766 23.2449 62.3881Z" fill="#6847C7" />
        <path opacity="0.64" d="M23.2766 66.3823V68.3657C23.2766 68.4867 23.2285 68.6027 23.143 68.6883C23.0574 68.7738 22.9415 68.8219 22.8205 68.8219C22.6996 68.8219 22.5834 68.7738 22.4979 68.6883C22.4123 68.6027 22.3643 68.4867 22.3643 68.3657V66.3823C22.3643 66.2624 22.4119 66.1475 22.4967 66.0627C22.5815 65.9779 22.6965 65.9302 22.8165 65.9302C22.9364 65.9302 23.0514 65.9779 23.1362 66.0627C23.221 66.1475 23.2687 66.2624 23.2687 66.3823H23.2766Z" fill="#6847C7" />
        <path opacity="0.64" d="M23.2886 70.377V72.3601C23.2886 72.4843 23.2392 72.6033 23.1514 72.6911C23.0636 72.7789 22.9447 72.8281 22.8205 72.8281C22.6964 72.8281 22.5773 72.7789 22.4895 72.6911C22.4017 72.6033 22.3523 72.4843 22.3523 72.3601V70.377C22.3523 70.2539 22.4012 70.1358 22.4883 70.0488C22.5753 69.9618 22.6933 69.913 22.8165 69.913C22.9396 69.913 23.0576 69.9618 23.1446 70.0488C23.2317 70.1358 23.2806 70.2539 23.2806 70.377H23.2886Z" fill="#6847C7" />
        <path opacity="0.64" d="M23.2845 74.3713V76.3548C23.2845 76.4758 23.2365 76.5918 23.1509 76.6774C23.0654 76.7629 22.9495 76.8109 22.8285 76.8109C22.7076 76.8109 22.5915 76.7629 22.5059 76.6774C22.4204 76.5918 22.3723 76.4758 22.3723 76.3548V74.3713C22.3723 74.3109 22.3842 74.251 22.4074 74.1952C22.4305 74.1394 22.4644 74.0887 22.5071 74.0459C22.5498 74.0032 22.6006 73.9693 22.6564 73.9462C22.7122 73.9231 22.772 73.9111 22.8324 73.9111C22.8928 73.9111 22.9526 73.9231 23.0084 73.9462C23.0642 73.9693 23.115 74.0032 23.1577 74.0459C23.2004 74.0887 23.2343 74.1394 23.2574 74.1952C23.2806 74.251 23.2925 74.3109 23.2925 74.3713H23.2845Z" fill="#6847C7" />
        <path opacity="0.64" d="M23.2726 78.3619C23.2725 79.0059 23.3204 79.6489 23.4156 80.2857C23.434 80.3993 23.4064 80.5156 23.3391 80.609C23.2717 80.7023 23.1701 80.7652 23.0565 80.7836C22.9428 80.802 22.8266 80.7745 22.7332 80.7072C22.6398 80.6399 22.5771 80.5382 22.5587 80.4246C22.4425 79.7444 22.3815 79.0558 22.3762 78.3658C22.3762 78.2469 22.4235 78.133 22.5075 78.0489C22.5916 77.9649 22.7055 77.9176 22.8244 77.9176C22.9433 77.9176 23.0572 77.9649 23.1413 78.0489C23.2254 78.133 23.2726 78.2469 23.2726 78.3658V78.3619Z" fill="#6847C7" />
        <path opacity="0.64" d="M23.848 82.1658C24.039 82.7816 24.2792 83.3812 24.566 83.9587C24.5896 84.0058 24.6036 84.0571 24.6072 84.1096C24.6108 84.1622 24.6039 84.2149 24.5869 84.2648C24.5699 84.3146 24.5432 84.3606 24.5083 84.4C24.4733 84.4394 24.431 84.4715 24.3835 84.4943C24.2902 84.5401 24.1827 84.5475 24.0841 84.5148C23.9854 84.4822 23.9035 84.4121 23.8559 84.3197C23.5444 83.7084 23.2792 83.0747 23.0626 82.4237C23.0286 82.3184 23.0374 82.2041 23.0872 82.1053C23.1369 82.0066 23.2235 81.9314 23.3283 81.896C23.38 81.8764 23.4352 81.8677 23.4904 81.8707C23.5456 81.8736 23.5996 81.8881 23.6489 81.9131C23.6982 81.9381 23.7417 81.9731 23.7767 82.0159C23.8117 82.0588 23.8372 82.1085 23.8518 82.1618L23.848 82.1658Z" fill="#6847C7" />
        <path opacity="0.64" d="M25.5456 85.6329C25.9138 86.1658 26.3222 86.6696 26.7673 87.1401C26.7991 87.1715 26.8243 87.2088 26.8415 87.25C26.8588 87.2912 26.8677 87.3354 26.8677 87.3801C26.8677 87.4247 26.8588 87.4689 26.8415 87.5101C26.8243 87.5513 26.7991 87.5887 26.7673 87.62C26.7032 87.6811 26.6179 87.7152 26.5293 87.7152C26.4407 87.7152 26.3556 87.6811 26.2915 87.62C25.8071 87.1364 25.3601 86.6167 24.9547 86.0653C24.8964 85.9869 24.8716 85.8886 24.8857 85.7919C24.8998 85.6953 24.9517 85.6081 25.03 85.5497C25.1091 85.4912 25.2079 85.4663 25.3052 85.4804C25.4026 85.4945 25.4905 85.5465 25.5497 85.625L25.5456 85.6329Z" fill="#6847C7" />
        <path opacity="0.64" d="M28.2072 88.4451C28.7194 88.8471 29.2619 89.2092 29.8296 89.528C29.8906 89.5637 29.9353 89.6217 29.9545 89.6897C29.9738 89.7578 29.9659 89.8305 29.9326 89.8929C29.8991 89.953 29.8435 89.9978 29.7777 90.0177C29.7119 90.0377 29.6408 90.0313 29.5796 90C28.9722 89.6918 28.3901 89.3363 27.8384 88.9369C27.7722 88.8896 27.7273 88.8179 27.7139 88.7375C27.7005 88.6572 27.7196 88.5748 27.767 88.5085C27.8143 88.4422 27.8861 88.3974 27.9664 88.3841C28.0468 88.3707 28.1291 88.3898 28.1954 88.4371L28.2072 88.4451Z" fill="#6847C7" />
        <path opacity="0.64" d="M31.6026 90.3569C32.2167 90.5917 32.848 90.7786 33.4909 90.9161C33.5121 90.9203 33.5323 90.9288 33.5502 90.9409C33.5681 90.953 33.5833 90.9685 33.5951 90.9866C33.6069 91.0047 33.615 91.025 33.6189 91.0462C33.6228 91.0675 33.6224 91.0893 33.6178 91.1104C33.6082 91.1521 33.5833 91.1887 33.548 91.213C33.5128 91.2372 33.4698 91.2474 33.4274 91.2413C32.7552 91.1386 32.092 90.9833 31.444 90.7772C31.416 90.7683 31.3902 90.7539 31.3679 90.7348C31.3455 90.7158 31.3271 90.6925 31.3138 90.6663C31.3006 90.6401 31.2926 90.6115 31.2904 90.5822C31.2882 90.553 31.292 90.5235 31.3012 90.4957C31.3098 90.4679 31.3238 90.4421 31.3425 90.4198C31.3612 90.3975 31.384 90.3791 31.4099 90.3658C31.4358 90.3525 31.4642 90.3445 31.4932 90.3423C31.5222 90.3401 31.5512 90.3437 31.5788 90.353L31.6026 90.3569Z" fill="#6847C7" />
        <path opacity="0.64" d="M35.4465 91.1781L37.4296 91.2456C37.4412 91.2474 37.4519 91.253 37.4598 91.2617C37.4678 91.2703 37.4726 91.2814 37.4734 91.2931C37.4734 91.3047 37.4688 91.3158 37.4606 91.324C37.4524 91.3322 37.4412 91.3368 37.4296 91.3368C36.7633 91.3606 36.1009 91.3883 35.4465 91.3962C35.4177 91.3963 35.3901 91.3851 35.3694 91.3652C35.3487 91.3452 35.3366 91.3179 35.3355 91.2892C35.335 91.2748 35.3374 91.2604 35.3425 91.2469C35.3476 91.2335 35.3553 91.2213 35.3653 91.2109C35.3753 91.2006 35.3873 91.1922 35.4006 91.1866C35.4139 91.181 35.4282 91.1781 35.4426 91.1781H35.4465Z" fill="#6847C7" />
    </g>
    <path opacity="0.15" d="M201.857 48.0048L187.228 56.0809C187.103 56.149 186.959 56.1738 186.819 56.1515C186.679 56.1291 186.55 56.061 186.453 55.9577C186.355 55.8543 186.295 55.7217 186.281 55.5804C186.267 55.439 186.3 55.297 186.375 55.1765L191.27 47.4574L186.308 39.9207C186.228 39.8019 186.19 39.6598 186.201 39.5171C186.211 39.3744 186.27 39.2394 186.366 39.1337C186.463 39.0281 186.592 38.9579 186.733 38.9344C186.874 38.911 187.019 38.9356 187.145 39.0043L201.849 46.8902C201.948 46.9449 202.031 47.0252 202.09 47.1228C202.148 47.2203 202.179 47.3316 202.18 47.4452C202.18 47.5587 202.151 47.6705 202.094 47.7688C202.038 47.8672 201.956 47.9487 201.857 48.0048Z" fill="url(#paint12_linear_2_670)" />
    <path d="M202.519 41.6817L187.886 49.7579C187.761 49.828 187.617 49.8544 187.476 49.8327C187.334 49.8111 187.205 49.7427 187.107 49.6385C187.009 49.5344 186.949 49.4003 186.936 49.258C186.924 49.1157 186.959 48.9733 187.037 48.8535L191.932 41.1264L186.969 33.5897C186.891 33.4712 186.854 33.3299 186.865 33.1882C186.876 33.0464 186.934 32.9124 187.029 32.8072C187.125 32.702 187.253 32.6317 187.393 32.6075C187.533 32.5833 187.677 32.6064 187.803 32.6734L202.511 40.5592C202.612 40.6133 202.697 40.6938 202.757 40.7922C202.816 40.8906 202.848 41.0031 202.849 41.1181C202.849 41.233 202.819 41.3461 202.761 41.4453C202.703 41.5445 202.619 41.6262 202.519 41.6817Z" fill="url(#paint13_linear_2_670)" />
    <defs>
        <linearGradient id="paint0_linear_2_670" x1="79.1672" y1="28.9806" x2="96.8862" y2="28.9806" gradientUnits="userSpaceOnUse">
            <stop stop-color="#C4EAFC" stop-opacity="0.1" />
            <stop offset="1" stop-color="#FEFEFC" />
        </linearGradient>
        <linearGradient id="paint1_linear_2_670" x1="210921" y1="91539.9" x2="212701" y2="91539.9" gradientUnits="userSpaceOnUse">
            <stop stop-color="#C4EAFC" stop-opacity="0.1" />
            <stop offset="1" stop-color="#FEFEFC" />
        </linearGradient>
        <linearGradient id="paint2_linear_2_670" x1="155542" y1="90297.7" x2="156704" y2="89051.4" gradientUnits="userSpaceOnUse">
            <stop stop-color="#DEE1E2" />
            <stop offset="1" stop-color="#B4BCBE" />
        </linearGradient>
        <linearGradient id="paint3_linear_2_670" x1="133643" y1="136650" x2="131655" y2="139399" gradientUnits="userSpaceOnUse">
            <stop stop-color="#60B05B" />
            <stop offset="0.25" stop-color="#75BC60" />
            <stop offset="0.74" stop-color="#9AD069" />
            <stop offset="1" stop-color="#A8D86D" />
        </linearGradient>
        <linearGradient id="paint4_linear_2_670" x1="190493" y1="112102" x2="187347" y2="115354" gradientUnits="userSpaceOnUse">
            <stop stop-color="#FEFEFC" />
            <stop offset="0.09" stop-color="#FEFEFC" stop-opacity="0.96" />
            <stop offset="0.25" stop-color="#FEFEFC" stop-opacity="0.86" />
            <stop offset="0.44" stop-color="#FEFEFD" stop-opacity="0.7" />
            <stop offset="0.68" stop-color="#FFFFFE" stop-opacity="0.47" />
            <stop offset="0.93" stop-color="white" stop-opacity="0.18" />
            <stop offset="1" stop-color="white" stop-opacity="0.1" />
        </linearGradient>
        <linearGradient id="paint5_linear_2_670" x1="184219" y1="108700" x2="181188" y2="111832" gradientUnits="userSpaceOnUse">
            <stop stop-color="#FEFEFC" />
            <stop offset="0.09" stop-color="#FEFEFC" stop-opacity="0.96" />
            <stop offset="0.25" stop-color="#FEFEFC" stop-opacity="0.86" />
            <stop offset="0.44" stop-color="#FEFEFD" stop-opacity="0.7" />
            <stop offset="0.68" stop-color="#FFFFFE" stop-opacity="0.47" />
            <stop offset="0.93" stop-color="white" stop-opacity="0.18" />
            <stop offset="1" stop-color="white" stop-opacity="0.1" />
        </linearGradient>
        <linearGradient id="paint6_linear_2_670" x1="1.01566e+06" y1="234772" x2="1.10855e+06" y2="234772" gradientUnits="userSpaceOnUse">
            <stop stop-color="#735CD2" />
            <stop offset="1" stop-color="#8F6ACC" />
        </linearGradient>
        <linearGradient id="paint7_linear_2_670" x1="84613.2" y1="67776.5" x2="84883.7" y2="67776.5" gradientUnits="userSpaceOnUse">
            <stop stop-color="#FB9835" />
            <stop offset="1" stop-color="#FBBB3C" />
        </linearGradient>
        <linearGradient id="paint8_linear_2_670" x1="82829.1" y1="69395.3" x2="83099.7" y2="69395.3" gradientUnits="userSpaceOnUse">
            <stop stop-color="#FB9835" />
            <stop offset="1" stop-color="#FBBB3C" />
        </linearGradient>
        <linearGradient id="paint9_linear_2_670" x1="81670.6" y1="68253" x2="81941.3" y2="68253" gradientUnits="userSpaceOnUse">
            <stop stop-color="#FB9835" />
            <stop offset="1" stop-color="#FBBB3C" />
        </linearGradient>
        <linearGradient id="paint10_linear_2_670" x1="286697" y1="114367" x2="278613" y2="106553" gradientUnits="userSpaceOnUse">
            <stop stop-color="#2FA2FA" />
            <stop offset="1" stop-color="#43BEFB" />
        </linearGradient>
        <linearGradient id="paint11_linear_2_670" x1="154372" y1="111253" x2="154372" y2="115393" gradientUnits="userSpaceOnUse">
            <stop stop-color="#DEE1E2" />
            <stop offset="1" stop-color="#B4BCBE" />
        </linearGradient>
        <linearGradient id="paint12_linear_2_670" x1="21102.8" y1="108480" x2="21563.2" y2="108987" gradientUnits="userSpaceOnUse">
            <stop stop-color="#735CD2" />
            <stop offset="1" stop-color="#8F6ACC" />
        </linearGradient>
        <linearGradient id="paint13_linear_2_670" x1="21144.9" y1="108252" x2="21605.6" y2="108759" gradientUnits="userSpaceOnUse">
            <stop stop-color="#735CD2" />
            <stop offset="1" stop-color="#8F6ACC" />
        </linearGradient>
    </defs>
</svg>