<svg width="141" height="144" viewBox="0 0 141 144" fill="none" xmlns="http://www.w3.org/2000/svg">
<path d="M51.6378 118.048L42.7485 143.277H50.2019L62.0125 124.299" fill="url(#paint0_linear_2_510)"/>
<path d="M103.867 118.048L112.756 143.277H105.303L93.4957 124.299" fill="url(#paint1_linear_2_510)"/>
<path d="M123.808 81.8648C123.824 93.6847 119.288 105.057 111.141 113.621C102.994 122.184 91.862 127.282 80.0559 127.854C79.2969 127.893 78.5307 127.911 77.7645 127.911C71.2341 127.907 64.7794 126.514 58.8286 123.824C52.8778 121.134 47.5672 117.209 43.2493 112.31C38.9315 107.411 35.7051 101.649 33.7844 95.4077C31.8637 89.1661 31.2926 82.5874 32.1091 76.1082C32.9255 69.629 35.1109 63.3975 38.5199 57.8275C41.929 52.2575 46.4837 47.4763 51.882 43.8014C57.2802 40.1264 63.3984 37.6417 69.8304 36.5122C76.2624 35.3827 82.8612 35.6344 89.1885 37.2503C90.9468 37.699 92.6767 38.2525 94.3689 38.9079C103.038 42.2612 110.489 48.1588 115.743 55.8258C120.997 63.4928 123.809 72.5702 123.808 81.8648Z" fill="url(#paint2_linear_2_510)"/>
<path d="M77.7642 116.86C97.0913 116.86 112.759 101.192 112.759 81.8647C112.759 62.5375 97.0913 46.8698 77.7642 46.8698C58.437 46.8698 42.7693 62.5375 42.7693 81.8647C42.7693 101.192 58.437 116.86 77.7642 116.86Z" fill="white"/>
<path d="M77.7649 106.502C91.372 106.502 102.403 95.4718 102.403 81.8648C102.403 68.2577 91.372 57.2271 77.7649 57.2271C64.1578 57.2271 53.127 68.2577 53.127 81.8648C53.127 95.4718 64.1578 106.502 77.7649 106.502Z" fill="url(#paint3_linear_2_510)"/>
<path d="M77.7651 96.8329C86.0318 96.8329 92.7334 90.1313 92.7334 81.8646C92.7334 73.5979 86.0318 66.8964 77.7651 66.8964C69.4984 66.8964 62.7971 73.5979 62.7971 81.8646C62.7971 90.1313 69.4984 96.8329 77.7651 96.8329Z" fill="white"/>
<path d="M79.4798 32.2453C80.1501 32.2453 80.6933 31.7021 80.6933 31.0319C80.6933 30.3617 80.1501 29.8183 79.4798 29.8183C78.8095 29.8183 78.2662 30.3617 78.2662 31.0319C78.2662 31.7021 78.8095 32.2453 79.4798 32.2453Z" fill="#6847C7"/>
<g opacity="0.19">
<path opacity="0.19" d="M135.527 43.3937L131.446 57.9144C131.411 58.0379 131.337 58.1464 131.234 58.2228C131.131 58.2992 131.006 58.3391 130.878 58.3362C130.749 58.3334 130.626 58.2878 130.526 58.2069C130.427 58.126 130.358 58.0142 130.329 57.8893L128.467 49.8522L120.473 48.2626C120.347 48.2379 120.232 48.1717 120.148 48.0745C120.064 47.9774 120.015 47.8549 120.008 47.7265C120.001 47.5981 120.038 47.4712 120.112 47.366C120.186 47.2607 120.293 47.1831 120.416 47.1456L134.8 42.6885C134.899 42.6576 135.005 42.654 135.106 42.6781C135.206 42.7021 135.299 42.7529 135.373 42.8251C135.448 42.8973 135.501 42.9883 135.528 43.0883C135.555 43.1884 135.555 43.2939 135.527 43.3937Z" fill="url(#paint4_linear_2_510)"/>
<path opacity="0.19" d="M9.70996 129.243C11.7816 127.019 13.8711 124.812 15.9785 122.624C18.0764 120.418 20.1923 118.242 22.3081 116.058C24.4239 113.874 26.5432 111.701 28.6733 109.535C30.8034 107.369 32.9227 105.192 35.0672 103.041C39.3632 98.7447 43.6199 94.4128 47.9553 90.1526C52.2907 85.8923 56.5689 81.5891 60.9294 77.3575C61.1097 77.182 61.3294 77.0522 61.5702 76.9791C61.811 76.9059 62.0658 76.8915 62.3133 76.9371C62.5608 76.9827 62.7939 77.0869 62.9928 77.241C63.1918 77.3951 63.3509 77.5947 63.4569 77.823L68.6443 89.1502C69.5142 91.0333 70.3557 92.9343 71.2113 94.8281L73.7638 100.51L71.2578 99.9977L78.1924 93.6646L85.1663 87.3745C89.8203 83.1679 94.4921 79.0151 99.1712 74.8443C101.505 72.7572 103.865 70.7022 106.217 68.6365C108.569 66.5708 110.921 64.5016 113.295 62.4574C118.027 58.3546 122.778 54.2735 127.593 50.2567C123.193 54.7245 118.736 59.1244 114.258 63.5028C112.027 65.7045 109.772 67.874 107.523 70.0507C105.275 72.2274 103.027 74.4112 100.754 76.5664C96.225 80.8875 91.7033 85.2193 87.1316 89.4974L80.2902 95.9415L73.4093 102.332C73.2571 102.474 73.0784 102.584 72.8835 102.656C72.6886 102.729 72.4814 102.762 72.2736 102.754C72.0658 102.747 71.8615 102.698 71.6725 102.612C71.4834 102.525 71.3133 102.402 71.1718 102.25C71.0594 102.127 70.9665 101.988 70.8962 101.838L68.3006 96.1742C67.4414 94.284 66.5608 92.4044 65.7159 90.507L60.6036 79.144L63.1383 79.6237C58.7778 83.8517 54.3565 88.0189 49.9566 92.2075C45.5568 96.3962 41.1068 100.531 36.6819 104.695C34.4694 106.775 32.2247 108.822 29.998 110.888C27.7712 112.954 25.5337 115.012 23.2854 117.057C21.0372 119.101 18.7997 121.156 16.5335 123.182C14.2674 125.208 11.9904 127.235 9.70996 129.243Z" fill="url(#paint5_linear_2_510)"/>
</g>
<path d="M11.2079 121.55C13.2461 119.287 15.3034 117.046 17.3798 114.826C19.4419 112.589 21.5363 110.387 23.627 108.178L26.7631 104.87L29.9279 101.587C32.0402 99.4035 34.1344 97.2017 36.2645 95.0322C38.3946 92.8627 40.5105 90.6861 42.6477 88.5273C44.785 86.3685 46.9187 84.2098 49.0631 82.0581C53.3592 77.7621 57.6709 73.4828 61.998 69.2202C62.4107 68.8147 62.9675 68.5895 63.5461 68.5942C64.1247 68.5989 64.6777 68.8331 65.0838 69.2453C65.2551 69.4218 65.3965 69.6249 65.5027 69.8467L65.5207 69.886C67.2713 73.6522 68.9826 77.4364 70.7117 81.2097L75.8383 92.5692L72.3262 91.8532L79.2823 85.5451L86.2706 79.2694C90.9461 75.1046 95.6407 70.9612 100.354 66.8394C102.706 64.7737 105.087 62.7367 107.461 60.6925C109.834 58.6483 112.201 56.5969 114.621 54.5849C117.041 52.573 119.4 50.5324 121.82 48.5419C124.24 46.5514 126.653 44.5465 129.099 42.5811C126.951 44.8627 124.773 47.1182 122.565 49.3474C120.381 51.5956 118.158 53.8045 115.949 56.0277C113.74 58.2509 111.506 60.4455 109.276 62.6436C107.045 64.8417 104.822 67.0471 102.57 69.2238C98.0811 73.5914 93.5655 77.9292 89.0236 82.2371L82.1965 88.6812L75.3371 95.111C74.9109 95.5086 74.3444 95.7208 73.7619 95.7014C73.1794 95.6819 72.6283 95.4323 72.2296 95.0072C72.0692 94.8354 71.9365 94.6397 71.8359 94.4272V94.3986L66.659 83.0642C64.9549 79.2765 63.233 75.496 61.554 71.6975L65.0732 72.3635C60.6888 76.5664 56.2817 80.7431 51.852 84.8936C49.6372 86.9724 47.4164 89.0452 45.1896 91.1121C42.9628 93.179 40.7205 95.2447 38.4627 97.3091C36.2288 99.3677 33.9661 101.398 31.7215 103.445L28.3456 106.506L24.9409 109.542C22.6711 111.565 20.4085 113.591 18.1101 115.585C15.8117 117.579 13.5313 119.584 11.2079 121.55Z" fill="url(#paint6_linear_2_510)"/>
<path d="M133.281 38.7754L129.096 53.2676C129.06 53.3909 128.985 53.4988 128.881 53.5743C128.777 53.6498 128.651 53.6885 128.523 53.6844C128.395 53.6803 128.272 53.6336 128.173 53.5517C128.075 53.4697 128.006 53.357 127.979 53.2318L126.189 45.1837L118.205 43.537C118.08 43.5099 117.967 43.4421 117.885 43.3442C117.802 43.2464 117.754 43.124 117.748 42.996C117.743 42.8681 117.78 42.7417 117.853 42.6369C117.927 42.532 118.033 42.4545 118.155 42.4164L132.572 38.063C132.67 38.0368 132.774 38.037 132.872 38.0636C132.971 38.0902 133.06 38.1422 133.132 38.2144C133.204 38.2866 133.256 38.3765 133.282 38.475C133.308 38.5735 133.307 38.6771 133.281 38.7754Z" fill="url(#paint7_linear_2_510)"/>
<path opacity="0.13" d="M110.541 125.502C106.957 124.509 103.807 122.349 101.591 119.362C100.476 117.858 99.6156 116.18 99.0452 114.397L98.8519 113.72C98.6468 112.963 98.4949 112.193 98.3972 111.415C98.2841 110.515 98.248 109.607 98.2897 108.701C98.3076 108.289 98.3364 107.878 98.3829 107.455C98.7076 104.521 99.8086 101.727 101.573 99.3606C103.056 97.364 104.965 95.7222 107.162 94.5538C109.358 93.3855 111.786 92.7199 114.271 92.6051C114.456 92.5979 114.64 92.6311 114.81 92.7022C114.981 92.7733 115.134 92.8807 115.259 93.0169C115.384 93.1532 115.478 93.315 115.534 93.4912C115.591 93.6673 115.608 93.8536 115.585 94.0371L115.327 96.2889L114.332 105.117L113.644 111.139L113 116.82L112.141 124.414C112.12 124.596 112.06 124.772 111.965 124.929C111.87 125.086 111.742 125.221 111.59 125.324C111.438 125.428 111.266 125.497 111.085 125.528C110.903 125.558 110.718 125.55 110.541 125.502Z" fill="url(#paint8_linear_2_510)"/>
<path d="M115.882 125.906C112.298 124.912 109.149 122.752 106.932 119.767C105.817 118.261 104.956 116.584 104.383 114.801L104.189 114.125C103.986 113.367 103.834 112.597 103.735 111.819C103.623 110.919 103.587 110.011 103.627 109.105C103.649 108.694 103.677 108.278 103.724 107.86C104.17 103.898 106.015 100.227 108.927 97.5044C111.839 94.7822 115.626 93.1884 119.609 93.0097C119.794 93.0027 119.978 93.0358 120.148 93.1069C120.319 93.178 120.473 93.2854 120.598 93.4216C120.723 93.5577 120.817 93.7194 120.874 93.8955C120.931 94.0717 120.948 94.2581 120.926 94.4417L120.668 96.6971L119.669 105.522L118.982 111.547L118.341 117.225L117.482 124.822C117.46 125.003 117.399 125.179 117.304 125.335C117.208 125.491 117.081 125.625 116.929 125.728C116.777 125.831 116.605 125.9 116.425 125.931C116.244 125.962 116.059 125.953 115.882 125.906Z" fill="url(#paint9_linear_2_510)"/>
<path opacity="0.13" d="M124.506 128.889C124.321 128.896 124.137 128.864 123.966 128.793C123.795 128.722 123.642 128.615 123.517 128.478C123.391 128.342 123.298 128.18 123.242 128.003C123.186 127.827 123.169 127.64 123.193 127.457L124.145 119.051L124.786 113.373V113.312C124.817 113.051 124.927 112.807 125.101 112.61C125.275 112.414 125.504 112.275 125.759 112.213L138.823 109.127C139.121 109.058 139.434 109.097 139.706 109.237C139.978 109.378 140.192 109.61 140.309 109.893C140.347 109.997 140.374 110.105 140.391 110.215C140.538 111.482 140.538 112.761 140.391 114.028C140.334 114.518 140.262 114.998 140.162 115.46C139.427 119.125 137.487 122.439 134.649 124.873C131.812 127.307 128.241 128.721 124.506 128.889Z" fill="url(#paint10_linear_2_510)"/>
<path d="M121.138 126.486C120.953 126.494 120.768 126.461 120.597 126.39C120.426 126.319 120.272 126.212 120.147 126.076C120.022 125.94 119.927 125.778 119.871 125.601C119.814 125.425 119.797 125.238 119.82 125.054L120.776 116.648L121.417 110.97V110.91C121.448 110.649 121.557 110.404 121.731 110.207C121.905 110.011 122.136 109.872 122.391 109.811L135.454 106.728C135.752 106.658 136.065 106.697 136.337 106.836C136.61 106.976 136.823 107.208 136.94 107.491C136.978 107.595 137.005 107.703 137.019 107.813C137.167 109.08 137.167 110.359 137.019 111.626C136.961 112.116 136.886 112.596 136.786 113.058C136.053 116.722 134.113 120.036 131.277 122.47C128.441 124.903 124.871 126.318 121.138 126.486Z" fill="url(#paint11_linear_2_510)"/>
<path opacity="0.13" d="M136.89 101.229L125.741 103.857C125.542 103.905 125.334 103.904 125.135 103.855C124.936 103.805 124.752 103.708 124.598 103.572C124.444 103.436 124.326 103.265 124.253 103.073C124.179 102.882 124.153 102.675 124.177 102.472L124.27 101.688L125.269 92.8628L125.43 91.4308C125.451 91.2482 125.511 91.0723 125.606 90.9149C125.701 90.7576 125.829 90.6224 125.981 90.5185C126.132 90.4147 126.304 90.3446 126.486 90.313C126.667 90.2814 126.852 90.289 127.03 90.3353C128.222 90.6655 129.372 91.129 130.46 91.7171C133.429 93.3144 135.849 95.7681 137.405 98.7591C137.53 98.9919 137.652 99.2353 137.763 99.4752C137.837 99.6465 137.873 99.8319 137.868 100.018C137.863 100.205 137.817 100.388 137.734 100.555C137.651 100.722 137.532 100.869 137.386 100.986C137.24 101.102 137.071 101.185 136.89 101.229Z" fill="url(#paint12_linear_2_510)"/>
<path d="M134.727 104.512L123.575 107.143C123.376 107.191 123.168 107.189 122.969 107.14C122.771 107.09 122.587 106.993 122.434 106.857C122.281 106.721 122.163 106.55 122.089 106.359C122.016 106.168 121.99 105.961 122.014 105.758L122.107 104.974L123.106 96.1492L123.267 94.6956C123.29 94.5148 123.351 94.341 123.447 94.1859C123.542 94.0308 123.67 93.8979 123.821 93.7962C123.973 93.6944 124.144 93.6263 124.323 93.5962C124.503 93.5661 124.687 93.5747 124.863 93.6216C126.056 93.9518 127.208 94.4154 128.297 95.0036C131.267 96.5997 133.687 99.0537 135.242 102.045C135.367 102.278 135.486 102.522 135.6 102.761C135.675 102.932 135.711 103.118 135.706 103.304C135.702 103.491 135.656 103.674 135.573 103.841C135.489 104.008 135.37 104.155 135.224 104.271C135.078 104.387 134.908 104.469 134.727 104.512Z" fill="url(#paint13_linear_2_510)"/>
<g opacity="0.1">
<path opacity="0.1" d="M119.676 105.511L103.62 109.109C103.641 108.697 103.67 108.282 103.716 107.863C104.041 104.93 105.14 102.136 106.902 99.7685L120.661 96.686L119.676 105.511Z" fill="#FEFEFE"/>
<path opacity="0.1" d="M135.243 102.027L122.108 104.974L123.106 96.149L128.297 94.9855C131.267 96.5817 133.688 99.0356 135.243 102.027Z" fill="#FEFEFE"/>
<path opacity="0.1" d="M118.348 117.214L106.946 119.767C105.831 118.261 104.97 116.584 104.396 114.801L118.996 111.533L118.348 117.214Z" fill="#FEFEFE"/>
<path opacity="0.1" d="M136.791 113.09L120.774 116.67L121.415 110.992L136.945 107.512C136.984 107.616 137.01 107.724 137.024 107.834C137.173 109.101 137.173 110.381 137.024 111.647C136.967 112.134 136.892 112.614 136.791 113.09Z" fill="#FEFEFE"/>
</g>
<path opacity="0.15" d="M48.3798 23.9578C48.3798 24.4698 48.3797 24.9674 48.3188 25.465C47.9661 31.1668 45.5826 36.5536 41.6 40.6492C37.6174 44.7447 32.2994 47.2781 26.6097 47.7901C25.8937 47.8617 25.1776 47.8903 24.4437 47.8903C24.2253 47.8903 24.0034 47.8903 23.785 47.8903C20.0646 47.7972 16.4175 46.8362 13.1344 45.0836C9.65741 43.2023 6.69401 40.4982 4.50302 37.2076C2.65381 34.4315 1.41181 31.2961 0.858493 28.0068C0.621415 26.7171 0.501592 25.4087 0.50049 24.0974V23.9685C0.499122 20.3001 1.34092 16.6806 2.96088 13.3893C4.58085 10.098 6.93562 7.2231 9.84334 4.98659C12.7511 2.75009 16.134 1.21177 19.7307 0.490568C23.3275 -0.230635 27.0419 -0.115446 30.587 0.827158H30.6049C35.6983 2.19045 40.1997 5.19618 43.4108 9.37826C46.622 13.5603 48.3635 18.6851 48.3655 23.9578H48.3798Z" fill="#6847C7"/>
<path d="M22.7122 24.3856L20.4703 27.6058L19.2 29.4259L14.0688 36.7926C14.052 36.818 14.0324 36.8414 14.0104 36.8624C13.9727 36.9001 13.9254 36.9268 13.8737 36.9396C13.822 36.9525 13.7677 36.951 13.7168 36.9354C13.6897 36.9262 13.6647 36.9117 13.6432 36.8928C13.6218 36.8739 13.6043 36.8508 13.5919 36.8251C13.5756 36.7931 13.5652 36.7585 13.561 36.7229L13.0435 31.663C13.0433 31.6469 13.04 31.6309 13.0338 31.616C13.0304 31.6012 13.0249 31.5871 13.0176 31.5738C13.0127 31.5599 13.005 31.5472 12.9949 31.5365C12.9936 31.5323 12.9915 31.5285 12.9887 31.5251C12.986 31.5218 12.9825 31.519 12.9786 31.517C12.9675 31.5036 12.9537 31.4925 12.9381 31.4846C12.9094 31.4638 12.8764 31.45 12.8415 31.4441C12.8066 31.4382 12.7708 31.4404 12.7369 31.4505L7.8085 32.7175C7.55056 32.7808 7.40618 32.5001 7.57002 32.2649L14.5344 22.2653L14.9465 21.6748L16.2102 19.8578C16.2497 19.7898 16.314 19.7398 16.3897 19.7183C16.4654 19.6968 16.5464 19.7055 16.6158 19.7426L19.6445 21.8516L20.6601 22.554L22.1201 23.5663L22.683 23.9589C22.7134 23.9847 22.7383 24.0163 22.7563 24.0519C22.7743 24.0875 22.7849 24.1263 22.7876 24.1661C22.7904 24.2058 22.7851 24.2458 22.7721 24.2834C22.7592 24.3211 22.7388 24.3559 22.7122 24.3856Z" fill="url(#paint14_linear_2_510)"/>
<path d="M22.712 24.3856L14.0686 36.7959C13.9064 37.0295 13.5933 36.9889 13.5641 36.7277L13.0417 31.6663C13.0395 31.6304 13.0294 31.5955 13.012 31.5641C12.9946 31.5326 12.9704 31.5055 12.9412 31.4846L19.646 21.8564L22.6796 23.9654C22.7395 24.0169 22.7766 24.09 22.7826 24.1688C22.7887 24.2475 22.7633 24.3255 22.712 24.3856Z" fill="url(#paint15_linear_2_510)"/>
<path d="M41.1262 32.7175L36.1913 31.4505C36.1574 31.4407 36.1217 31.4387 36.0868 31.4446C36.052 31.4505 36.019 31.4641 35.9902 31.4845C35.9748 31.4897 35.9616 31.5 35.9528 31.5137L35.9366 31.5397C35.9315 31.5433 35.9271 31.5479 35.9238 31.5532C35.9204 31.5584 35.9182 31.5643 35.9172 31.5705C35.9098 31.5838 35.9043 31.5979 35.9009 31.6127C35.8995 31.6283 35.8995 31.6441 35.9009 31.6597L35.3753 36.7196C35.3753 36.7407 35.3753 36.7569 35.3656 36.7731C35.3572 36.8026 35.3441 36.8306 35.3266 36.8559C35.3001 36.8879 35.2661 36.913 35.2277 36.9289C35.1747 36.9441 35.1185 36.9441 35.0655 36.9289C34.9858 36.9039 34.9171 36.8524 34.8708 36.7828L29.5335 29.1209L28.3104 27.3689L26.2193 24.3855C26.178 24.3313 26.1548 24.2654 26.1531 24.1973C26.1513 24.1291 26.1711 24.0622 26.2095 24.0059C26.2223 23.991 26.237 23.9779 26.2533 23.967L26.5259 23.7788L27.6712 22.9806L29.2821 21.8564L32.3125 19.7475C32.3817 19.7099 32.4629 19.701 32.5387 19.7225C32.6145 19.744 32.6789 19.7943 32.718 19.8626L33.5065 20.9982L33.7871 21.4006L41.3615 32.2697C41.5253 32.4968 41.3777 32.7807 41.1262 32.7175Z" fill="url(#paint16_linear_2_510)"/>
<path d="M35.989 31.483C35.9765 31.4919 35.9651 31.5022 35.9549 31.5138C35.9549 31.5138 35.9436 31.53 35.9371 31.5381C35.9299 31.5485 35.9234 31.5593 35.9176 31.5705C35.9101 31.5836 35.9052 31.5979 35.903 31.6127C35.8968 31.6277 35.8935 31.6436 35.8933 31.6598L35.3693 36.7212C35.3693 36.7407 35.3693 36.7553 35.3596 36.7748C35.3509 36.8037 35.3377 36.831 35.3206 36.8559C35.2929 36.8869 35.2585 36.9113 35.22 36.9273C35.1671 36.9432 35.1107 36.9432 35.0578 36.9273C34.9773 36.9039 34.9078 36.8527 34.8615 36.7829L29.5259 29.1209L28.306 27.3673L26.2181 24.3856C26.1775 24.3316 26.1548 24.2664 26.1531 24.1989C26.1513 24.1315 26.1707 24.0651 26.2084 24.0092C26.2218 23.9944 26.2364 23.9808 26.2522 23.9686L26.5263 23.7788L27.67 22.9807L29.2826 21.8564L31.4515 24.9679L32.3292 26.2301L35.989 31.483Z" fill="url(#paint17_linear_2_510)"/>
<path d="M20.4702 27.6057L19.1999 29.4259C18.0452 28.7372 17.0455 27.8171 16.2637 26.7232C15.3211 25.407 14.7277 23.8732 14.5392 22.2652L14.9512 21.6747C15.3881 23.0041 16.1083 24.2228 17.0619 25.2467C18.0156 26.2707 19.1801 27.0755 20.475 27.6057H20.4702Z" fill="url(#paint18_linear_2_510)"/>
<path d="M33.7842 21.3908C33.7378 23.1047 33.2336 24.775 32.3242 26.2284C31.6022 27.3801 30.648 28.3686 29.5225 29.1307L28.2993 27.3786C29.5834 26.7617 30.7157 25.8692 31.6155 24.7647C32.5153 23.6602 33.1605 22.3708 33.5052 20.9885L33.7842 21.3908Z" fill="url(#paint19_linear_2_510)"/>
<path d="M33.7842 18.6622C33.7846 19.0717 33.7586 19.4808 33.7064 19.887C33.6604 20.2559 33.5916 20.6216 33.5004 20.982C33.1655 22.3279 32.5451 23.586 31.6812 24.671C30.8173 25.756 29.7302 26.6425 28.4935 27.2703C27.2568 27.8981 25.8996 28.2525 24.5138 28.3096C23.1281 28.3666 21.7463 28.1249 20.4622 27.6009C19.1688 27.0702 18.0058 26.2652 17.0536 25.2416C16.1013 24.2179 15.3825 22.9999 14.9465 21.6715C14.7548 21.0911 14.62 20.4935 14.5442 19.887C14.4912 19.4809 14.4652 19.0717 14.4663 18.6622C14.4663 16.0996 15.4843 13.642 17.2963 11.83C19.1083 10.018 21.566 9 24.1285 9C26.6911 9 29.1487 10.018 30.9607 11.83C32.7728 13.642 33.7907 16.0996 33.7907 18.6622H33.7842Z" fill="url(#paint20_linear_2_510)"/>
<path d="M24.5776 13.6121L25.9127 16.318C25.9488 16.3909 26.0021 16.4539 26.068 16.5017C26.1338 16.5494 26.2102 16.5805 26.2907 16.5922L29.2757 17.0253C29.3685 17.0386 29.4558 17.0777 29.5275 17.1381C29.5992 17.1986 29.6526 17.2779 29.6815 17.3671C29.7104 17.4563 29.7137 17.5519 29.691 17.6429C29.6683 17.7339 29.6205 17.8167 29.5531 17.8819L27.3938 19.9908C27.3356 20.0474 27.292 20.1173 27.2669 20.1944C27.2417 20.2716 27.2357 20.3537 27.2495 20.4337L27.7588 23.4122C27.7747 23.5043 27.7644 23.5991 27.7292 23.6857C27.6941 23.7723 27.6353 23.8474 27.5597 23.9024C27.4841 23.9574 27.3947 23.9902 27.3014 23.997C27.2082 24.0038 27.1149 23.9845 27.0321 23.9411L24.3618 22.5378C24.2899 22.4994 24.2097 22.4794 24.1282 22.4794C24.0467 22.4794 23.9665 22.4994 23.8946 22.5378L21.2244 23.9411C21.1416 23.9845 21.0483 24.0038 20.955 23.997C20.8618 23.9902 20.7723 23.9574 20.6967 23.9024C20.6211 23.8474 20.5624 23.7723 20.5272 23.6857C20.492 23.5991 20.4818 23.5043 20.4976 23.4122L21.007 20.4386C21.0207 20.3586 21.0147 20.2765 20.9896 20.1993C20.9644 20.1221 20.9208 20.0523 20.8626 19.9957L18.7018 17.8868C18.6349 17.8212 18.5877 17.7383 18.5654 17.6473C18.5432 17.5564 18.5468 17.461 18.5758 17.372C18.6048 17.283 18.658 17.2038 18.7296 17.1434C18.8012 17.083 18.8881 17.0438 18.9808 17.0302L21.9657 16.5971C22.0462 16.5853 22.1227 16.5543 22.1885 16.5065C22.2543 16.4588 22.3076 16.3958 22.3437 16.3229L23.6789 13.617C23.7198 13.5329 23.7835 13.4621 23.8626 13.4123C23.9418 13.3625 24.0332 13.3359 24.1267 13.3354C24.2202 13.3349 24.3119 13.3605 24.3916 13.4094C24.4713 13.4583 24.5357 13.5285 24.5776 13.6121Z" fill="white"/>
<path opacity="0.21" d="M32.2163 14.2917L14.1193 30.8171C13.1602 29.3786 12.5161 27.7535 12.2291 26.0485L27.6411 11.9718C29.3121 12.4154 30.8709 13.2059 32.2163 14.2917Z" fill="url(#paint21_linear_2_510)"/>
<path opacity="0.21" d="M36.8446 23.9578C36.8446 24.2228 36.8446 24.4805 36.816 24.7383L24.1035 36.3519C22.1751 36.3029 20.2847 35.8039 18.5833 34.8948L35.8601 19.114C36.514 20.645 36.849 22.2931 36.8446 23.9578Z" fill="url(#paint22_linear_2_510)"/>
<g opacity="0.57">
<path opacity="0.57" d="M79.2752 30.8169L79.2145 29.6965C79.214 29.6885 79.215 29.6805 79.2176 29.673C79.2202 29.6654 79.2243 29.6584 79.2296 29.6524C79.235 29.6465 79.2415 29.6416 79.2487 29.6381C79.2558 29.6346 79.2637 29.6325 79.2717 29.6321C79.2882 29.6311 79.3044 29.6364 79.317 29.6471C79.3296 29.6578 79.3377 29.673 79.3395 29.6894L79.2752 30.8169Z" fill="#6847C7"/>
<path opacity="0.57" d="M79.1244 27.6774L79.0814 26.5568C79.0776 26.529 79.0798 26.5006 79.0879 26.4737C79.0959 26.4468 79.1097 26.4219 79.1282 26.4007C79.1467 26.3796 79.1694 26.3626 79.1949 26.351C79.2205 26.3394 79.2483 26.3334 79.2764 26.3334C79.3044 26.3334 79.3322 26.3394 79.3578 26.351C79.3833 26.3626 79.4062 26.3796 79.4247 26.4007C79.4431 26.4219 79.4568 26.4468 79.4649 26.4737C79.4729 26.5006 79.4751 26.529 79.4713 26.5568L79.4285 27.6774C79.4229 27.7137 79.4045 27.7469 79.3766 27.7708C79.3487 27.7947 79.3131 27.8079 79.2764 27.8079C79.2396 27.8079 79.2041 27.7947 79.1763 27.7708C79.1484 27.7469 79.13 27.7137 79.1244 27.6774Z" fill="#6847C7"/>
<path opacity="0.57" d="M79.0065 24.552C78.9767 24.1969 78.9119 23.8455 78.8131 23.5031C78.7913 23.4281 78.8002 23.3475 78.8378 23.279C78.8754 23.2105 78.9386 23.1598 79.0136 23.1379C79.0887 23.1161 79.1693 23.1249 79.2378 23.1625C79.3063 23.2001 79.357 23.2633 79.3789 23.3383C79.4669 23.7214 79.5161 24.1125 79.5257 24.5054C79.5295 24.5747 79.5056 24.6428 79.4593 24.6945C79.4129 24.7462 79.3478 24.7773 79.2785 24.7811C79.2092 24.7849 79.1412 24.761 79.0895 24.7147C79.0378 24.6683 79.0068 24.6034 79.003 24.5341L79.0065 24.552Z" fill="#6847C7"/>
<path opacity="0.57" d="M77.9861 21.7951C77.7805 21.5098 77.5468 21.246 77.2882 21.0076C77.2518 20.9754 77.2224 20.9362 77.2017 20.8922C77.1809 20.8483 77.1692 20.8005 77.1676 20.7519C77.1659 20.7034 77.1742 20.655 77.1919 20.6097C77.2095 20.5644 77.2361 20.5232 77.2702 20.4886C77.3023 20.4527 77.3414 20.4238 77.385 20.4034C77.4286 20.3831 77.476 20.3716 77.5242 20.37C77.5723 20.3683 77.6203 20.3763 77.6652 20.3936C77.7102 20.411 77.7511 20.4372 77.7856 20.4707C78.065 20.753 78.3158 21.0623 78.5339 21.3942C78.5796 21.4708 78.595 21.5618 78.5771 21.6492C78.5592 21.7366 78.5094 21.8141 78.4373 21.8667C78.3655 21.9091 78.2812 21.9252 78.1989 21.9121C78.1165 21.8991 78.0412 21.8577 77.9861 21.7951Z" fill="#6847C7"/>
<path opacity="0.57" d="M75.7232 19.9765C75.4044 19.8366 75.0721 19.7299 74.7315 19.6579C74.6748 19.651 74.6202 19.6323 74.5711 19.603C74.522 19.5738 74.4794 19.5347 74.4463 19.4881C74.4131 19.4416 74.39 19.3886 74.3784 19.3326C74.3669 19.2767 74.367 19.2189 74.379 19.163C74.3909 19.1071 74.4145 19.0544 74.448 19.0081C74.4815 18.9617 74.5242 18.9229 74.5735 18.894C74.6229 18.8651 74.6777 18.8469 74.7345 18.8403C74.7913 18.8338 74.8488 18.8392 74.9034 18.8561C75.2924 18.9519 75.6713 19.0849 76.0347 19.2534C76.0822 19.275 76.1249 19.3058 76.1604 19.344C76.1959 19.3822 76.2233 19.4271 76.2413 19.4761C76.2593 19.525 76.2674 19.5771 76.2651 19.6292C76.2628 19.6813 76.2503 19.7324 76.228 19.7796C76.1844 19.8702 76.1079 19.9409 76.0143 19.9774C75.9206 20.014 75.8167 20.0136 75.7232 19.9765Z" fill="#6847C7"/>
<path opacity="0.57" d="M72.8315 19.5433H71.7072C71.5914 19.5433 71.4804 19.4973 71.3985 19.4154C71.3166 19.3335 71.2705 19.2224 71.2705 19.1066C71.2701 19.0494 71.2808 18.9927 71.3023 18.9397C71.3239 18.8868 71.3558 18.8386 71.396 18.798C71.4363 18.7574 71.4843 18.7252 71.5371 18.7032C71.5899 18.6812 71.6465 18.6699 71.7037 18.6699H72.8315C72.9392 18.6797 73.0392 18.7294 73.1121 18.8092C73.185 18.889 73.2254 18.9931 73.2254 19.1012C73.2254 19.2092 73.185 19.3134 73.1121 19.3932C73.0392 19.4731 72.9392 19.5227 72.8315 19.5326V19.5433Z" fill="#6847C7"/>
<path opacity="0.57" d="M69.6734 19.5576H68.5527C68.4941 19.5581 68.436 19.547 68.3818 19.5249C68.3275 19.5028 68.2781 19.4702 68.2365 19.4289C68.1949 19.3876 68.162 19.3385 68.1395 19.2844C68.117 19.2303 68.1052 19.1723 68.1052 19.1137C68.1052 18.9951 68.1524 18.8812 68.2363 18.7973C68.3203 18.7134 68.434 18.6663 68.5527 18.6663H69.6734C69.7353 18.6607 69.7976 18.6681 69.8565 18.688C69.9153 18.7078 69.9695 18.7398 70.0154 18.7817C70.0612 18.8237 70.0978 18.8747 70.1229 18.9315C70.1479 18.9884 70.1608 19.0498 70.1608 19.1119C70.1608 19.174 70.1479 19.2355 70.1229 19.2924C70.0978 19.3492 70.0612 19.4003 70.0154 19.4422C69.9695 19.4841 69.9153 19.516 69.8565 19.5359C69.7976 19.5557 69.7353 19.5632 69.6734 19.5576Z" fill="#6847C7"/>
<path opacity="0.57" d="M66.5332 19.5505H65.4125C65.304 19.5406 65.2032 19.4905 65.1297 19.41C65.0562 19.3296 65.0154 19.2245 65.0154 19.1155C65.0154 19.0065 65.0562 18.9015 65.1297 18.821C65.2032 18.7405 65.304 18.6905 65.4125 18.6806H66.5332C66.5941 18.6751 66.6555 18.6823 66.7134 18.7019C66.7714 18.7214 66.8247 18.7528 66.8699 18.7941C66.9151 18.8353 66.9512 18.8855 66.9758 18.9415C67.0005 18.9975 67.0132 19.0579 67.0132 19.1191C67.0132 19.1803 67.0005 19.2408 66.9758 19.2968C66.9512 19.3527 66.9151 19.403 66.8699 19.4442C66.8247 19.4855 66.7714 19.5168 66.7134 19.5363C66.6555 19.5559 66.5941 19.5632 66.5332 19.5577V19.5505Z" fill="#6847C7"/>
<path opacity="0.57" d="M63.395 19.5291H62.2741C62.1739 19.5196 62.0808 19.4731 62.013 19.3986C61.9452 19.3241 61.9077 19.2271 61.9077 19.1263C61.9077 19.0256 61.9452 18.9286 62.013 18.8541C62.0808 18.7796 62.1739 18.7331 62.2741 18.7236H63.395C63.453 18.7182 63.5114 18.725 63.5666 18.7435C63.6219 18.762 63.6727 18.7918 63.7158 18.8311C63.7588 18.8703 63.7933 18.9182 63.8168 18.9715C63.8403 19.0248 63.8525 19.0824 63.8525 19.1407C63.8525 19.1989 63.8403 19.2566 63.8168 19.3099C63.7933 19.3632 63.7588 19.411 63.7158 19.4503C63.6727 19.4895 63.6219 19.5193 63.5666 19.5378C63.5114 19.5563 63.453 19.5631 63.395 19.5578V19.5291Z" fill="#6847C7"/>
<path opacity="0.57" d="M60.2538 19.4862L59.1334 19.4611C59.0384 19.4611 58.9472 19.4234 58.8801 19.3563C58.813 19.2892 58.7754 19.1981 58.7754 19.1032C58.7754 19.0083 58.813 18.9172 58.8801 18.85C58.9472 18.7829 59.0384 18.7453 59.1334 18.7453L60.2538 18.7202C60.3026 18.7173 60.3514 18.7243 60.3974 18.741C60.4433 18.7577 60.4854 18.7836 60.5209 18.8171C60.5565 18.8506 60.5848 18.8911 60.6041 18.936C60.6235 18.9809 60.6334 19.0293 60.6333 19.0781C60.6368 19.1272 60.63 19.1765 60.6136 19.2228C60.5971 19.2692 60.5713 19.3117 60.5377 19.3476C60.5041 19.3836 60.4635 19.4122 60.4183 19.4317C60.3732 19.4512 60.3245 19.4613 60.2753 19.4611L60.2538 19.4862Z" fill="#6847C7"/>
<path opacity="0.57" d="M57.1149 19.4183L55.9906 19.3825C55.955 19.3816 55.9199 19.3736 55.8874 19.359C55.855 19.3444 55.8257 19.3236 55.8014 19.2976C55.7771 19.2716 55.7582 19.241 55.7458 19.2076C55.7334 19.1742 55.7278 19.1388 55.7292 19.1032C55.731 19.0345 55.7591 18.969 55.8077 18.9203C55.8563 18.8717 55.9218 18.8436 55.9906 18.8418L57.1149 18.806C57.1903 18.8141 57.2601 18.8499 57.3108 18.9064C57.3616 18.9629 57.3895 19.0362 57.3895 19.1121C57.3895 19.1881 57.3616 19.2613 57.3108 19.3179C57.2601 19.3744 57.1903 19.4101 57.1149 19.4183Z" fill="#6847C7"/>
<path opacity="0.57" d="M53.9722 19.3214L52.8516 19.2785C52.8116 19.2727 52.7752 19.2526 52.7488 19.2221C52.7224 19.1915 52.7079 19.1524 52.7079 19.112C52.7079 19.0717 52.7224 19.0326 52.7488 19.0021C52.7752 18.9715 52.8116 18.9515 52.8516 18.9456L53.9722 18.9026C53.9998 18.9012 54.0274 18.9053 54.0533 18.9146C54.0793 18.9239 54.1033 18.9383 54.1236 18.957C54.144 18.9757 54.1604 18.9982 54.1719 19.0233C54.1834 19.0484 54.1898 19.0755 54.1908 19.1031C54.1918 19.1583 54.1714 19.2117 54.1341 19.2524C54.0968 19.2931 54.0453 19.3178 53.9902 19.3214H53.9722Z" fill="#6847C7"/>
<path opacity="0.57" d="M50.8312 19.189L49.7108 19.1281C49.7108 19.1281 49.6929 19.1281 49.7108 19.1281L50.8312 19.0672C50.8414 19.0662 50.8517 19.0673 50.8614 19.0704C50.8712 19.0735 50.8801 19.0786 50.8878 19.0853C50.8955 19.092 50.9018 19.1002 50.9062 19.1094C50.9106 19.1186 50.9131 19.1286 50.9135 19.1388C50.9145 19.149 50.9135 19.1592 50.9104 19.169C50.9073 19.1787 50.9022 19.1878 50.8955 19.1955C50.8888 19.2032 50.8806 19.2094 50.8714 19.2138C50.8622 19.2183 50.8522 19.2207 50.842 19.2212L50.8312 19.189Z" fill="#6847C7"/>
</g>
<g opacity="0.57">
<path opacity="0.57" d="M27.8936 76.0077L26.7732 76.0721C26.7649 76.0726 26.7566 76.0715 26.7488 76.0686C26.7409 76.0658 26.7338 76.0613 26.7278 76.0556C26.7217 76.0499 26.7169 76.0431 26.7136 76.0354C26.7103 76.0278 26.7087 76.0196 26.7087 76.0113C26.7082 76.0033 26.7094 75.9953 26.712 75.9877C26.7147 75.9802 26.7186 75.9732 26.7239 75.9672C26.7293 75.9612 26.7358 75.9564 26.743 75.9529C26.7502 75.9494 26.7581 75.9474 26.7661 75.947L27.8936 76.0077Z" fill="#6847C7"/>
<path opacity="0.57" d="M24.7542 76.1651L23.6338 76.2081C23.606 76.2119 23.5777 76.2097 23.5508 76.2016C23.5239 76.1935 23.4989 76.1798 23.4777 76.1613C23.4565 76.1428 23.4397 76.12 23.4281 76.0944C23.4164 76.0689 23.4104 76.0411 23.4104 76.013C23.4104 75.9849 23.4164 75.9572 23.4281 75.9316C23.4397 75.9061 23.4565 75.8833 23.4777 75.8648C23.4989 75.8463 23.5239 75.8326 23.5508 75.8245C23.5777 75.8164 23.606 75.8142 23.6338 75.8179L24.7542 75.8609C24.7743 75.8614 24.7941 75.8658 24.8125 75.874C24.8308 75.8823 24.8472 75.8941 24.8609 75.9087C24.8746 75.9234 24.8851 75.9407 24.892 75.9595C24.8989 75.9784 24.902 75.9984 24.9011 76.0184C24.8993 76.0568 24.8833 76.0931 24.8562 76.1202C24.829 76.1474 24.7926 76.1634 24.7542 76.1651Z" fill="#6847C7"/>
<path opacity="0.57" d="M21.6009 76.2656C21.2079 76.256 20.8169 76.2069 20.4338 76.1188C20.3578 76.1017 20.2917 76.0552 20.25 75.9894C20.2084 75.9235 20.1947 75.8439 20.2118 75.7679C20.2289 75.6919 20.2755 75.6259 20.3413 75.5842C20.4071 75.5426 20.4867 75.5288 20.5626 75.5458H20.5805C20.9229 75.6446 21.2744 75.7094 21.6296 75.7392C21.6989 75.743 21.7638 75.7742 21.8102 75.826C21.8565 75.8777 21.8804 75.9456 21.8766 76.015C21.8728 76.0843 21.8416 76.1492 21.7899 76.1956C21.7382 76.2419 21.6702 76.2658 21.6009 76.262V76.2656Z" fill="#6847C7"/>
<path opacity="0.57" d="M18.4857 75.2918C18.1537 75.0736 17.8443 74.8229 17.5619 74.5435C17.5276 74.5101 17.5001 74.4703 17.4812 74.4264C17.4622 74.3824 17.4521 74.3351 17.4515 74.2872C17.4508 74.2393 17.4596 74.1918 17.4773 74.1474C17.495 74.1029 17.5214 74.0623 17.5548 74.0279C17.5882 73.9936 17.6279 73.9662 17.6719 73.9473C17.7159 73.9283 17.7632 73.9183 17.8111 73.9176C17.8589 73.917 17.9064 73.9257 17.9509 73.9434C17.9954 73.9611 18.036 73.9874 18.0703 74.0208C18.3097 74.2773 18.5736 74.5099 18.858 74.7153C18.9046 74.7754 18.9307 74.8487 18.9329 74.9246C18.935 75.0005 18.9131 75.0751 18.8701 75.1377C18.8271 75.2003 18.7652 75.2476 18.6935 75.2728C18.6219 75.2979 18.544 75.2995 18.4713 75.2775L18.4857 75.2918Z" fill="#6847C7"/>
<path opacity="0.57" d="M16.3308 72.7857C16.1629 72.4208 16.0297 72.0409 15.9334 71.6509C15.916 71.5481 15.9383 71.4425 15.9956 71.3555C16.0529 71.2685 16.1411 71.2065 16.2423 71.1819C16.3436 71.1574 16.4504 71.1722 16.5412 71.2233C16.6319 71.2745 16.7 71.3582 16.7315 71.4576C16.8034 71.7982 16.9102 72.1305 17.05 72.4492C17.0768 72.541 17.0696 72.6393 17.0297 72.7261C16.9899 72.813 16.9201 72.8826 16.8332 72.9222C16.7462 72.9618 16.648 72.9687 16.5564 72.9417C16.4647 72.9146 16.3858 72.8554 16.3343 72.775L16.3308 72.7857Z" fill="#6847C7"/>
<path opacity="0.57" d="M15.7589 69.5637V68.4396C15.7585 68.3825 15.7694 68.3257 15.7909 68.2727C15.8125 68.2197 15.8442 68.1716 15.8844 68.131C15.9247 68.0904 15.9727 68.0582 16.0255 68.0362C16.0783 68.0142 16.1349 68.0028 16.1921 68.0028C16.3076 68.0028 16.4185 68.0482 16.5009 68.1293C16.5833 68.2103 16.6305 68.3205 16.6324 68.4361V69.5601C16.6225 69.6677 16.5729 69.7678 16.493 69.8407C16.4132 69.9135 16.309 69.954 16.201 69.954C16.0929 69.954 15.9887 69.9135 15.9089 69.8407C15.8291 69.7678 15.7794 69.6677 15.7696 69.5601L15.7589 69.5637Z" fill="#6847C7"/>
<path opacity="0.57" d="M15.7437 66.4097V65.2892C15.7382 65.2273 15.7455 65.1649 15.7654 65.1061C15.7853 65.0472 15.8172 64.993 15.8591 64.9472C15.901 64.9013 15.952 64.8647 16.0089 64.8397C16.0657 64.8146 16.1273 64.8016 16.1894 64.8016C16.2516 64.8016 16.313 64.8146 16.3698 64.8397C16.4267 64.8647 16.4777 64.9013 16.5196 64.9472C16.5615 64.993 16.5934 65.0472 16.6133 65.1061C16.6332 65.1649 16.6405 65.2273 16.635 65.2892V66.4097C16.6405 66.4716 16.6332 66.5339 16.6133 66.5928C16.5934 66.6517 16.5615 66.7058 16.5196 66.7517C16.4777 66.7975 16.4267 66.8341 16.3698 66.8592C16.313 66.8843 16.2516 66.8972 16.1894 66.8972C16.1273 66.8972 16.0657 66.8843 16.0089 66.8592C15.952 66.8341 15.901 66.7975 15.8591 66.7517C15.8172 66.7058 15.7853 66.6517 15.7654 66.5928C15.7455 66.5339 15.7382 66.4716 15.7437 66.4097Z" fill="#6847C7"/>
<path opacity="0.57" d="M15.7509 63.27V62.1494C15.7608 62.0408 15.8108 61.9399 15.8913 61.8664C15.9717 61.7929 16.0768 61.7521 16.1858 61.7521C16.2948 61.7521 16.3999 61.7929 16.4803 61.8664C16.5608 61.9399 16.611 62.0408 16.6209 62.1494V63.27C16.6264 63.3309 16.6191 63.3923 16.5995 63.4503C16.58 63.5082 16.5485 63.5615 16.5073 63.6066C16.466 63.6518 16.4159 63.6879 16.3599 63.7126C16.3039 63.7373 16.2435 63.75 16.1823 63.75C16.1211 63.75 16.0605 63.7373 16.0045 63.7126C15.9486 63.6879 15.8984 63.6518 15.8572 63.6066C15.8159 63.5615 15.7846 63.5082 15.7651 63.4503C15.7455 63.3923 15.7382 63.3309 15.7437 63.27H15.7509Z" fill="#6847C7"/>
<path opacity="0.57" d="M15.7724 60.1303V59.0099C15.7819 58.9096 15.8284 58.8165 15.9029 58.7487C15.9773 58.6809 16.0745 58.6433 16.1752 58.6433C16.2759 58.6433 16.3729 58.6809 16.4474 58.7487C16.5219 58.8165 16.5685 58.9096 16.578 59.0099V60.1303C16.5684 60.2343 16.5202 60.3309 16.443 60.4013C16.3659 60.4716 16.2653 60.5105 16.1609 60.5105C16.0565 60.5105 15.9559 60.4716 15.8787 60.4013C15.8016 60.3309 15.7534 60.2343 15.7438 60.1303H15.7724Z" fill="#6847C7"/>
<path opacity="0.57" d="M15.8154 56.9905L15.8404 55.8699C15.8584 55.7908 15.9029 55.7201 15.9663 55.6695C16.0297 55.6189 16.1084 55.5914 16.1895 55.5914C16.2706 55.5914 16.3493 55.6189 16.4127 55.6695C16.4761 55.7201 16.5203 55.7908 16.5383 55.8699L16.5635 56.9905C16.5635 57.0897 16.5241 57.1849 16.4539 57.2551C16.3838 57.3252 16.2887 57.3647 16.1895 57.3647C16.0903 57.3647 15.995 57.3252 15.9248 57.2551C15.8547 57.1849 15.8154 57.0897 15.8154 56.9905Z" fill="#6847C7"/>
<path opacity="0.57" d="M15.8833 53.851L15.919 52.7268C15.9266 52.6605 15.9585 52.5993 16.0083 52.5549C16.0582 52.5104 16.1227 52.4859 16.1895 52.4859C16.2563 52.4859 16.3206 52.5104 16.3704 52.5549C16.4203 52.5993 16.4521 52.6605 16.4598 52.7268L16.4956 53.851C16.4875 53.9265 16.4516 53.9962 16.3951 54.0469C16.3386 54.0977 16.2654 54.1257 16.1895 54.1257C16.1135 54.1257 16.0402 54.0977 15.9837 54.0469C15.9272 53.9962 15.8915 53.9265 15.8833 53.851Z" fill="#6847C7"/>
<path opacity="0.57" d="M15.9795 50.7113L16.0223 49.5871C16.0251 49.5437 16.0446 49.5031 16.0767 49.4737C16.1087 49.4443 16.1507 49.4285 16.1941 49.4296C16.2359 49.4304 16.2759 49.4472 16.3058 49.4765C16.3357 49.5057 16.3534 49.5452 16.3552 49.5871L16.3982 50.7113C16.3992 50.7386 16.3947 50.7657 16.3851 50.7913C16.3756 50.8168 16.3611 50.8403 16.3425 50.8602C16.3239 50.8802 16.3014 50.8962 16.2766 50.9075C16.2518 50.9188 16.225 50.9251 16.1978 50.926C16.1426 50.9271 16.0892 50.9068 16.0485 50.8695C16.0079 50.8322 15.9832 50.7806 15.9795 50.7255V50.7113Z" fill="#6847C7"/>
<path opacity="0.57" d="M16.1136 47.568L16.1745 46.4473C16.1745 46.4473 16.1745 46.4473 16.1923 46.4473L16.2531 47.568C16.2541 47.5781 16.2531 47.5884 16.25 47.5981C16.2469 47.6079 16.2418 47.6168 16.2351 47.6245C16.2284 47.6322 16.2202 47.6385 16.211 47.6429C16.2018 47.6473 16.1917 47.6499 16.1815 47.6503C16.1714 47.6513 16.1612 47.6502 16.1515 47.6471C16.1418 47.644 16.1328 47.6389 16.1251 47.6322C16.1174 47.6255 16.1112 47.6173 16.1068 47.6081C16.1023 47.5989 16.0997 47.5889 16.0992 47.5787L16.1136 47.568Z" fill="#6847C7"/>
</g>
<path d="M48.5806 20.3239C49.2509 20.3239 49.7941 19.7805 49.7941 19.1103C49.7941 18.44 49.2509 17.8966 48.5806 17.8966C47.9104 17.8966 47.3668 18.44 47.3668 19.1103C47.3668 19.7805 47.9104 20.3239 48.5806 20.3239Z" fill="#6847C7"/>
<path d="M29.1087 77.2251C29.779 77.2251 30.3227 76.6817 30.3227 76.0114C30.3227 75.3412 29.779 74.798 29.1087 74.798C28.4384 74.798 27.8951 75.3412 27.8951 76.0114C27.8951 76.6817 28.4384 77.2251 29.1087 77.2251Z" fill="#6847C7"/>
<defs>
<linearGradient id="paint0_linear_2_510" x1="167331" y1="168642" x2="167331" y2="171089" gradientUnits="userSpaceOnUse">
<stop stop-color="#DEE1E2"/>
<stop offset="1" stop-color="#EFEFEF"/>
</linearGradient>
<linearGradient id="paint1_linear_2_510" x1="170084" y1="168642" x2="170084" y2="171089" gradientUnits="userSpaceOnUse">
<stop stop-color="#DEE1E2"/>
<stop offset="1" stop-color="#EFEFEF"/>
</linearGradient>
<linearGradient id="paint2_linear_2_510" x1="601480" y1="291378" x2="573097" y2="319232" gradientUnits="userSpaceOnUse">
<stop stop-color="#DEE1E2"/>
<stop offset="1" stop-color="#EFEFEF"/>
</linearGradient>
<linearGradient id="paint3_linear_2_510" x1="431460" y1="342502" x2="431460" y2="292005" gradientUnits="userSpaceOnUse">
<stop stop-color="#DEE1E2"/>
<stop offset="1" stop-color="#EFEFEF"/>
</linearGradient>
<linearGradient id="paint4_linear_2_510" x1="99031.6" y1="55476.5" x2="99697.2" y2="55503.8" gradientUnits="userSpaceOnUse">
<stop stop-color="#735CD2"/>
<stop offset="1" stop-color="#8F6ACC"/>
</linearGradient>
<linearGradient id="paint5_linear_2_510" x1="724159" y1="266681" x2="762830" y2="269053" gradientUnits="userSpaceOnUse">
<stop stop-color="#735CD2"/>
<stop offset="1" stop-color="#8F6ACC"/>
</linearGradient>
<linearGradient id="paint6_linear_2_510" x1="724498" y1="264912" x2="763577" y2="267307" gradientUnits="userSpaceOnUse">
<stop stop-color="#735CD2"/>
<stop offset="1" stop-color="#8F6ACC"/>
</linearGradient>
<linearGradient id="paint7_linear_2_510" x1="98797.5" y1="55931" x2="99463.5" y2="55963.1" gradientUnits="userSpaceOnUse">
<stop stop-color="#735CD2"/>
<stop offset="1" stop-color="#8F6ACC"/>
</linearGradient>
<linearGradient id="paint8_linear_2_510" x1="-55736.2" y1="172912" x2="-57122.2" y2="172938" gradientUnits="userSpaceOnUse">
<stop stop-color="#2FA2FA"/>
<stop offset="1" stop-color="#37D3FB"/>
</linearGradient>
<linearGradient id="paint9_linear_2_510" x1="-55269.4" y1="172876" x2="-56655.5" y2="172902" gradientUnits="userSpaceOnUse">
<stop stop-color="#2FA2FA"/>
<stop offset="1" stop-color="#37D3FB"/>
</linearGradient>
<linearGradient id="paint10_linear_2_510" x1="-12850.1" y1="157340" x2="-12580.3" y2="158066" gradientUnits="userSpaceOnUse">
<stop stop-color="#735CD2"/>
<stop offset="1" stop-color="#8F6ACC"/>
</linearGradient>
<linearGradient id="paint11_linear_2_510" x1="-13016.1" y1="157229" x2="-12746.2" y2="157955" gradientUnits="userSpaceOnUse">
<stop stop-color="#735CD2"/>
<stop offset="1" stop-color="#8F6ACC"/>
</linearGradient>
<linearGradient id="paint12_linear_2_510" x1="-3757.09" y1="121833" x2="-3490.99" y2="121258" gradientUnits="userSpaceOnUse">
<stop stop-color="#FB9835"/>
<stop offset="1" stop-color="#FBBB3C"/>
</linearGradient>
<linearGradient id="paint13_linear_2_510" x1="-3841.52" y1="121968" x2="-3575.26" y2="121392" gradientUnits="userSpaceOnUse">
<stop stop-color="#FB9835"/>
<stop offset="1" stop-color="#FBBB3C"/>
</linearGradient>
<linearGradient id="paint14_linear_2_510" x1="3351.26" y1="8358.43" x2="2016.42" y2="9542" gradientUnits="userSpaceOnUse">
<stop stop-color="#735CD2"/>
<stop offset="1" stop-color="#8F6ACC"/>
</linearGradient>
<linearGradient id="paint15_linear_2_510" x1="1681.42" y1="7959.64" x2="2278.36" y2="7959.64" gradientUnits="userSpaceOnUse">
<stop stop-color="#735CD2"/>
<stop offset="1" stop-color="#8F6ACC"/>
</linearGradient>
<linearGradient id="paint16_linear_2_510" x1="3976.16" y1="8137.29" x2="5108.49" y2="9360.95" gradientUnits="userSpaceOnUse">
<stop stop-color="#735CD2"/>
<stop offset="1" stop-color="#8F6ACC"/>
</linearGradient>
<linearGradient id="paint17_linear_2_510" x1="2494.51" y1="7954.2" x2="3090.96" y2="7954.2" gradientUnits="userSpaceOnUse">
<stop stop-color="#735CD2"/>
<stop offset="1" stop-color="#8F6ACC"/>
</linearGradient>
<linearGradient id="paint18_linear_2_510" x1="1187.64" y1="4058.94" x2="1187.64" y2="4276.28" gradientUnits="userSpaceOnUse">
<stop stop-color="#735CD2"/>
<stop offset="1" stop-color="#8F6ACC"/>
</linearGradient>
<linearGradient id="paint19_linear_2_510" x1="1570.15" y1="4261.9" x2="1570.15" y2="4490.21" gradientUnits="userSpaceOnUse">
<stop stop-color="#735CD2"/>
<stop offset="1" stop-color="#8F6ACC"/>
</linearGradient>
<linearGradient id="paint20_linear_2_510" x1="3284.74" y1="10227.7" x2="5995.21" y2="7516.09" gradientUnits="userSpaceOnUse">
<stop stop-color="#FB9835"/>
<stop offset="1" stop-color="#FBBB3C"/>
</linearGradient>
<linearGradient id="paint21_linear_2_510" x1="124105" y1="59499.9" x2="123130" y2="60546.3" gradientUnits="userSpaceOnUse">
<stop stop-color="#FEFEFC"/>
<stop offset="1" stop-color="#C4EAFC" stop-opacity="0.1"/>
</linearGradient>
<linearGradient id="paint22_linear_2_510" x1="113746" y1="54831.2" x2="112895" y2="55744.1" gradientUnits="userSpaceOnUse">
<stop stop-color="#FEFEFC"/>
<stop offset="1" stop-color="#C4EAFC" stop-opacity="0.1"/>
</linearGradient>
</defs>
</svg>
