<svg width="220" height="220" viewBox="0 0 220 220" fill="none" xmlns="http://www.w3.org/2000/svg">
<path d="M90.2964 8.1615L95.7785 5.89075L95.9698 6.35269L98.7109 5.21732C99.6069 4.84617 100.517 4.52104 101.437 4.24192L101.291 3.76346C103.181 3.19026 105.113 2.80783 107.059 2.61617L107.108 3.11377C109.031 2.92443 110.969 2.92443 112.892 3.11377L112.941 2.61618C114.887 2.80783 116.819 3.19026 118.709 3.76346L118.563 4.24193C119.483 4.52105 120.393 4.84618 121.289 5.21732L124.03 6.3527L124.222 5.89076L129.704 8.16151L129.512 8.62345L134.994 10.8942L135.186 10.4323L140.668 12.703L140.476 13.1649L145.959 15.4357L146.15 14.9738L151.632 17.2445L151.441 17.7064L156.923 19.9772L157.114 19.5153L162.596 21.786L162.405 22.2479L167.887 24.5187L168.078 24.0568L173.56 26.3275L173.369 26.7894L176.11 27.9248C177.006 28.296 177.879 28.7093 178.727 29.1625L178.963 28.7216C180.704 29.6522 182.341 30.7481 183.853 31.9889L183.535 32.3754C185.029 33.6013 186.399 34.971 187.625 36.4646L188.011 36.1474C189.252 37.6593 190.348 39.296 191.278 41.0373L190.837 41.273C191.291 42.1209 191.704 42.9941 192.075 43.8901L193.211 46.6311L193.673 46.4398L195.943 51.9219L195.481 52.1132L197.752 57.5953L198.214 57.4039L200.485 62.886L200.023 63.0774L202.294 68.5594L202.755 68.3681L205.026 73.8502L204.564 74.0415L206.835 79.5236L207.297 79.3322L209.568 84.8143L209.106 85.0057L211.377 90.4877L211.838 90.2964L214.109 95.7785L213.647 95.9698L214.783 98.7108C215.154 99.6069 215.479 100.517 215.758 101.437L216.237 101.291C216.81 103.181 217.192 105.113 217.384 107.059L216.886 107.108C217.076 109.031 217.076 110.969 216.886 112.892L217.384 112.941C217.192 114.887 216.81 116.819 216.237 118.709L215.758 118.563C215.479 119.483 215.154 120.393 214.783 121.289L213.647 124.03L214.109 124.222L211.838 129.704L211.377 129.512L209.106 134.994L209.568 135.186L207.297 140.668L206.835 140.476L204.564 145.959L205.026 146.15L202.755 151.632L202.294 151.441L200.023 156.923L200.485 157.114L198.214 162.596L197.752 162.405L195.481 167.887L195.943 168.078L193.672 173.56L193.211 173.369L192.075 176.11C191.704 177.006 191.291 177.879 190.837 178.727L191.278 178.963C190.348 180.704 189.252 182.341 188.011 183.853L187.625 183.535C186.399 185.029 185.029 186.399 183.535 187.625L183.853 188.011C182.341 189.252 180.704 190.348 178.963 191.278L178.727 190.837C177.879 191.291 177.006 191.704 176.11 192.075L173.369 193.211L173.56 193.673L168.078 195.943L167.887 195.481L162.405 197.752L162.596 198.214L157.114 200.485L156.923 200.023L151.441 202.294L151.632 202.756L146.15 205.026L145.958 204.564L140.476 206.835L140.668 207.297L135.186 209.568L134.994 209.106L129.512 211.377L129.704 211.839L124.222 214.109L124.03 213.647L121.289 214.783C120.393 215.154 119.483 215.479 118.563 215.758L118.709 216.237C116.819 216.81 114.887 217.192 112.941 217.384L112.892 216.886C110.969 217.076 109.031 217.076 107.108 216.886L107.059 217.384C105.113 217.192 103.181 216.81 101.291 216.237L101.437 215.758C100.517 215.479 99.6068 215.154 98.7108 214.783L95.9698 213.647L95.7785 214.109L90.2964 211.838L90.4877 211.377L85.0056 209.106L84.8143 209.568L79.3322 207.297L79.5236 206.835L74.0415 204.564L73.8502 205.026L68.3681 202.755L68.5594 202.294L63.0774 200.023L62.886 200.485L57.4039 198.214L57.5953 197.752L52.1132 195.481L51.9219 195.943L46.4398 193.672L46.6311 193.211L43.8901 192.075C42.9941 191.704 42.1209 191.291 41.273 190.837L41.0373 191.278C39.296 190.348 37.6593 189.252 36.1474 188.011L36.4646 187.625C34.971 186.399 33.6012 185.029 32.3754 183.535L31.9889 183.853C30.7481 182.341 29.6522 180.704 28.7216 178.963L29.1625 178.727C28.7093 177.879 28.296 177.006 27.9248 176.11L26.7894 173.369L26.3275 173.56L24.0567 168.078L24.5187 167.887L22.2479 162.405L21.786 162.596L19.5152 157.114L19.9772 156.923L17.7064 151.441L17.2445 151.632L14.9738 146.15L15.4357 145.958L13.1649 140.476L12.703 140.668L10.4323 135.186L10.8942 134.994L8.62344 129.512L8.1615 129.704L5.89075 124.222L6.35269 124.03L5.21732 121.289C4.84617 120.393 4.52104 119.483 4.24192 118.563L3.76346 118.709C3.19026 116.819 2.80783 114.887 2.61617 112.941L3.11377 112.892C2.92443 110.969 2.92443 109.031 3.11377 107.108L2.61618 107.059C2.80783 105.113 3.19026 103.181 3.76346 101.291L4.24193 101.437C4.52105 100.517 4.84618 99.6068 5.21732 98.7108L6.3527 95.9698L5.89076 95.7785L8.16151 90.2964L8.62345 90.4877L10.8942 85.0056L10.4323 84.8143L12.703 79.3322L13.1649 79.5236L15.4357 74.0415L14.9738 73.8502L17.2445 68.3681L17.7064 68.5594L19.9772 63.0773L19.5153 62.886L21.786 57.4039L22.2479 57.5953L24.5187 52.1132L24.0568 51.9219L26.3275 46.4398L26.7894 46.6311L27.9248 43.8901C28.296 42.9941 28.7093 42.1209 29.1625 41.273L28.7216 41.0373C29.6522 39.296 30.7481 37.6593 31.9889 36.1474L32.3754 36.4646C33.6013 34.971 34.971 33.6012 36.4646 32.3754L36.1474 31.9889C37.6593 30.7481 39.296 29.6522 41.0373 28.7216L41.273 29.1625C42.1209 28.7093 42.9941 28.296 43.8901 27.9248L46.6311 26.7894L46.4398 26.3275L51.9219 24.0567L52.1132 24.5187L57.5953 22.2479L57.4039 21.786L62.886 19.5152L63.0774 19.9772L68.5594 17.7064L68.3681 17.2445L73.8502 14.9738L74.0415 15.4357L79.5236 13.1649L79.3322 12.703L84.8143 10.4323L85.0057 10.8942L90.4877 8.62344L90.2964 8.1615Z" fill="#200D2E" stroke="#442B66" stroke-dasharray="6 6"/>
</svg>
